<svg width="500" height="500" xmlns="http://www.w3.org/2000/svg" version="1.1" xml:space="preserve">
 <g>
  <title>Layer 1</title>
  <g id="Background_Complete">
   <g id="svg_1">
    <g id="svg_2">
     <g id="svg_3">
      <g id="svg_4">
       <path d="m220.795,468.831c-1.496,-1.283 -4.834,-5.348 -2.26,-10.077c0.944,-1.734 2.947,-2.591 4.762,-3.355c1.814,-0.764 3.72,-1.428 5.221,-2.705c2.831,-2.408 3.612,-6.409 5.491,-9.622c2.157,-3.688 6.184,-6.451 10.438,-6.258c4.872,0.221 8.934,4.2 10.776,8.737c1.842,4.536 1.906,9.574 1.944,14.473c0.021,2.709 -0.099,5.763 -2.088,7.592c-1.834,1.687 -4.594,1.708 -7.079,1.631c-8.874,-0.273 -17.748,-0.545 -26.622,-0.818" fill="#F5F5F5" id="svg_5"/>
      </g>
     </g>
    </g>
    <g id="svg_6">
     <g id="svg_7">
      <g id="svg_8">
       <g id="svg_9">
        <path d="m271.712,395.626l-70.011,0l12.611,75.199c0.551,3.284 2.928,5.816 5.977,6.695c0.081,0.025 0.164,0.044 0.245,0.067c0.208,0.053 0.409,0.124 0.623,0.161c0.462,0.095 0.939,0.144 1.424,0.164c0.004,0.023 0.008,0.049 0.011,0.072l0.341,-0.054c0.001,0 0.002,0 0.002,0l31.203,0c0.587,0 1.16,-0.06 1.715,-0.171c3.685,-0.57 6.634,-3.527 7.083,-7.35l6.079,-51.813l0.274,-2.06l-0.032,0l2.408,-20.52l0.047,-0.39zm-13.208,47.968l-7.185,0l0.725,-21.824l8.324,0l-1.864,21.824zm2.562,-21.825l6.878,0l-2.561,21.824l-6.182,0l1.865,-21.824zm-20.526,46.018l-0.437,-18.96l10.346,0l-0.63,18.96l-9.279,0zm-11.185,-18.96l10.053,0l0.437,18.96l-9.017,0l-1.473,-18.96zm0.777,18.96l-8.429,0c-0.801,-5.119 -1.843,-11.772 -2.972,-18.96l9.927,0l1.474,18.96zm-1.184,-24.193l-1.696,-21.824l11.533,0l0.503,21.824l-10.34,0zm11.035,0l-0.503,-21.824l11.869,0l-0.725,21.824l-10.641,0zm-0.623,-27.059l-0.465,-20.211l13.3,0l-0.671,20.211l-12.164,0zm-0.695,0l-11.82,0l-1.571,-20.211l12.924,0l0.467,20.211zm-12.516,0l-12.505,0c-0.443,-2.791 -0.863,-5.434 -1.242,-7.811c-1.305,-8.172 -1.795,-11.244 -2.067,-12.4l14.243,0l1.571,20.211zm0.406,5.234l1.696,21.824l-10.341,0c-0.348,-2.214 -0.7,-4.454 -1.053,-6.696c-0.811,-5.152 -1.622,-10.302 -2.385,-15.128l12.083,0zm-9.349,21.825l-6.756,0l-3.661,-21.824l6.978,0c1.067,6.744 2.249,14.251 3.439,21.824zm0.822,5.233c1.03,6.561 2.043,13.03 2.971,18.96l-6.491,0l-3.18,-18.96l6.7,0zm32.488,18.96l0.63,-18.96l6.911,0l-1.62,18.96l-5.921,0zm1.702,-51.252l0.671,-20.211l9.653,0l-1.727,20.211l-8.597,0zm-42.546,-20.211c0.278,1.461 1.555,9.414 3.267,20.211l-7.027,0l-3.39,-20.211l7.15,0zm52.874,71.463l-5.411,0l1.62,-18.96l6.016,0l-2.225,18.96zm6.013,-51.252l-7.045,0l1.727,-20.211l7.69,0l-2.372,20.211z" fill="#E0E0E0" id="svg_10"/>
       </g>
      </g>
     </g>
    </g>
   </g>
   <g id="svg_11">
    <g id="svg_12">
     <g id="svg_13">
      <g id="svg_14">
       <g id="svg_15">
        <g id="svg_16">
         <g id="svg_17">
          <g id="svg_18">
           <path d="m275.117,321.299l-37.767,11.771c-2.61,0.813 -5.385,-0.643 -6.198,-3.253l-16.293,-52.274c-0.813,-2.61 0.643,-5.385 3.253,-6.198l23.952,-7.465l24.497,13.331l11.81,37.89c0.812,2.609 -0.644,5.384 -3.254,6.198z" fill="#EBEBEB" id="svg_19"/>
          </g>
         </g>
        </g>
       </g>
      </g>
     </g>
     <g id="svg_20">
      <g id="svg_21">
       <g id="svg_22">
        <g id="svg_23">
         <g id="svg_24">
          <g id="svg_25">
           <path d="m242.063,263.879l4.585,14.712c0.757,2.427 3.337,3.782 5.764,3.026l14.147,-4.407l-24.496,-13.331z" fill="#E0E0E0" id="svg_26"/>
          </g>
         </g>
        </g>
       </g>
      </g>
     </g>
    </g>
    <g id="svg_27">
     <g id="svg_28">
      <g id="svg_29">
       <g id="svg_30">
        <g id="svg_31">
         <path d="m243.294,278.978c0.059,0.189 -3.805,1.561 -8.629,3.065c-4.826,1.504 -8.784,2.57 -8.843,2.381c-0.059,-0.189 3.804,-1.561 8.63,-3.065c4.824,-1.504 8.783,-2.57 8.842,-2.381z" fill="#FAFAFA" id="svg_32"/>
        </g>
       </g>
      </g>
     </g>
    </g>
    <g id="svg_33">
     <g id="svg_34">
      <g id="svg_35">
       <g id="svg_36">
        <g id="svg_37">
         <path d="m257.171,283.779c0.059,0.189 -6.331,2.349 -14.271,4.823c-7.943,2.476 -14.427,4.329 -14.486,4.14c-0.059,-0.189 6.33,-2.349 14.273,-4.824c7.94,-2.475 14.425,-4.328 14.484,-4.139z" fill="#FAFAFA" id="svg_38"/>
        </g>
       </g>
      </g>
     </g>
    </g>
    <g id="svg_39">
     <g id="svg_40">
      <g id="svg_41">
       <g id="svg_42">
        <g id="svg_43">
         <path d="m261.926,289.918c0.059,0.189 -6.911,2.53 -15.566,5.227c-8.658,2.698 -15.722,4.732 -15.781,4.543c-0.059,-0.189 6.91,-2.529 15.568,-5.227c8.655,-2.698 15.72,-4.732 15.779,-4.543z" fill="#FAFAFA" id="svg_44"/>
        </g>
       </g>
      </g>
     </g>
    </g>
    <g id="svg_45">
     <g id="svg_46">
      <g id="svg_47">
       <g id="svg_48">
        <g id="svg_49">
         <path d="m263.969,296.471c0.059,0.189 -6.911,2.53 -15.566,5.227c-8.658,2.699 -15.722,4.732 -15.781,4.543c-0.059,-0.189 6.91,-2.529 15.568,-5.228c8.654,-2.697 15.72,-4.731 15.779,-4.542z" fill="#FAFAFA" id="svg_50"/>
        </g>
       </g>
      </g>
     </g>
    </g>
    <g id="svg_51">
     <g id="svg_52">
      <g id="svg_53">
       <g id="svg_54">
        <g id="svg_55">
         <path d="m266.011,303.025c0.059,0.189 -6.911,2.53 -15.566,5.227c-8.658,2.699 -15.722,4.732 -15.781,4.543c-0.059,-0.189 6.91,-2.529 15.568,-5.228c8.655,-2.697 15.72,-4.731 15.779,-4.542z" fill="#FAFAFA" id="svg_56"/>
        </g>
       </g>
      </g>
     </g>
    </g>
    <g id="svg_57">
     <g id="svg_58">
      <g id="svg_59">
       <g id="svg_60">
        <g id="svg_61">
         <path d="m268.054,309.578c0.059,0.189 -6.911,2.53 -15.566,5.227c-8.658,2.698 -15.722,4.732 -15.781,4.543c-0.059,-0.189 6.91,-2.529 15.568,-5.228c8.654,-2.697 15.72,-4.731 15.779,-4.542z" fill="#FAFAFA" id="svg_62"/>
        </g>
       </g>
      </g>
     </g>
    </g>
   </g>
   <g id="svg_63">
    <g id="svg_64">
     <g id="svg_65">
      <g id="svg_66">
       <g id="svg_67">
        <g id="svg_68">
         <g id="svg_69">
          <g id="svg_70">
           <path d="m435.382,117.311l-36.868,-14.342c-2.547,-0.991 -3.81,-3.86 -2.818,-6.407l19.851,-51.03c0.991,-2.548 3.86,-3.81 6.407,-2.819l23.382,9.095l10.842,25.695l-14.388,36.988c-0.992,2.549 -3.861,3.81 -6.408,2.82z" fill="#EBEBEB" id="svg_71"/>
          </g>
         </g>
        </g>
       </g>
      </g>
     </g>
     <g id="svg_72">
      <g id="svg_73">
       <g id="svg_74">
        <g id="svg_75">
         <g id="svg_76">
          <g id="svg_77">
           <path d="m445.335,51.808l-5.587,14.362c-0.922,2.369 0.252,5.037 2.621,5.959l13.808,5.374l-10.842,-25.695z" fill="#E0E0E0" id="svg_78"/>
          </g>
         </g>
        </g>
       </g>
      </g>
     </g>
    </g>
    <g id="svg_79">
     <g id="svg_80">
      <g id="svg_81">
       <g id="svg_82">
        <g id="svg_83">
         <path d="m436.885,64.382c-0.072,0.184 -3.949,-1.151 -8.658,-2.983c-4.711,-1.833 -8.47,-3.467 -8.399,-3.652c0.072,-0.185 3.948,1.151 8.659,2.983c4.709,1.832 8.47,3.467 8.398,3.652z" fill="#FAFAFA" id="svg_84"/>
        </g>
       </g>
      </g>
     </g>
    </g>
    <g id="svg_85">
     <g id="svg_86">
      <g id="svg_87">
       <g id="svg_88">
        <g id="svg_89">
         <path d="m444.742,76.787c-0.072,0.184 -6.415,-2.111 -14.165,-5.126c-7.754,-3.016 -13.979,-5.61 -13.907,-5.795c0.072,-0.185 6.413,2.11 14.167,5.126c7.75,3.016 13.977,5.61 13.905,5.795z" fill="#FAFAFA" id="svg_90"/>
        </g>
       </g>
      </g>
     </g>
    </g>
    <g id="svg_91">
     <g id="svg_92">
      <g id="svg_93">
       <g id="svg_94">
        <g id="svg_95">
         <path d="m444.632,84.551c-0.072,0.185 -6.981,-2.331 -15.43,-5.617c-8.452,-3.288 -15.243,-6.102 -15.171,-6.286c0.072,-0.184 6.979,2.33 15.431,5.618c8.449,3.286 15.242,6.101 15.17,6.285z" fill="#FAFAFA" id="svg_96"/>
        </g>
       </g>
      </g>
     </g>
    </g>
    <g id="svg_97">
     <g id="svg_98">
      <g id="svg_99">
       <g id="svg_100">
        <g id="svg_101">
         <path d="m442.144,90.948c-0.072,0.185 -6.981,-2.331 -15.429,-5.617c-8.452,-3.288 -15.243,-6.102 -15.171,-6.286c0.072,-0.184 6.979,2.33 15.431,5.618c8.448,3.286 15.24,6.101 15.169,6.285z" fill="#FAFAFA" id="svg_102"/>
        </g>
       </g>
      </g>
     </g>
    </g>
    <g id="svg_103">
     <g id="svg_104">
      <g id="svg_105">
       <g id="svg_106">
        <g id="svg_107">
         <path d="m439.655,97.346c-0.072,0.185 -6.981,-2.331 -15.43,-5.617c-8.452,-3.288 -15.243,-6.102 -15.171,-6.286c0.072,-0.185 6.979,2.33 15.431,5.618c8.449,3.286 15.242,6.1 15.17,6.285z" fill="#FAFAFA" id="svg_108"/>
        </g>
       </g>
      </g>
     </g>
    </g>
    <g id="svg_109">
     <g id="svg_110">
      <g id="svg_111">
       <g id="svg_112">
        <g id="svg_113">
         <path d="m437.166,103.743c-0.072,0.185 -6.981,-2.331 -15.429,-5.617c-8.452,-3.288 -15.243,-6.102 -15.171,-6.286c0.072,-0.185 6.979,2.33 15.431,5.618c8.449,3.286 15.241,6.101 15.169,6.285z" fill="#FAFAFA" id="svg_114"/>
        </g>
       </g>
      </g>
     </g>
    </g>
   </g>
   <g id="svg_115">
    <g id="svg_116">
     <path d="m88.998,263.298c1.604,0.233 2.714,1.734 2.48,3.355c-0.148,1.027 -0.295,2.035 -0.362,2.48l-3.393,22.31c-0.163,1.069 -1.152,1.805 -2.21,1.644l-51.067,-7.768c-1.012,-0.154 -1.729,-1.077 -1.636,-2.107l2.607,-28.915c0.101,-1.124 1.12,-1.931 2.225,-1.763l11.551,1.757c1.091,0.166 2.088,0.715 2.815,1.551l2.075,2.387l34.915,5.069z" fill="#E0E0E0" id="svg_117"/>
    </g>
    <g id="svg_118">
     <rect x="33.669" y="262.449" transform="matrix(0.9886 0.1504 -0.1504 0.9886 42.7311 -6.1285)" width="56.439" height="34.061" fill="#F5F5F5" id="svg_119"/>
    </g>
    <g id="svg_120">
     <path d="m31.652,260.746l-1.081,35.764c-0.019,0.635 0.434,1.184 1.057,1.279l54.377,8.271c0.643,0.098 1.254,-0.32 1.403,-0.96l8.079,-34.699c0.166,-0.715 -0.305,-1.419 -1.024,-1.529l-61.375,-9.336c-0.74,-0.112 -1.413,0.455 -1.436,1.21z" fill="#EBEBEB" id="svg_121"/>
    </g>
   </g>
  </g>
  <g id="Background_Simple" display="none">
   <path d="m411.19,97.274l-2.065,-3.403c-17.41,-28.69 -48.887,-45.984 -82.075,-43.886c-4.266,0.27 -8.514,0.847 -12.705,1.744c-30.174,6.459 -56.429,29.277 -67.312,58.5c-6.4,17.187 -8.188,36.975 -20.334,50.617c-15.807,17.754 -42.643,18.312 -66.238,17.576c-23.594,-0.736 -50.449,-0.108 -66.179,17.716c-9.852,11.163 -12.982,27.038 -12.188,41.987c2.103,39.58 29.683,74.97 64.758,92.561c35.075,17.591 76.371,19.166 114.758,11.428c53.776,-10.84 104.916,-40.61 135.655,-86.59c30.74,-45.979 38.52,-108.622 13.925,-158.25z" fill="#F5F5F5" id="svg_122"/>
  </g>
  <g id="Plant">
   <g id="svg_123">
    <path d="m162.303,266.263c-11.031,5.714 -19.489,15.552 -25.571,26.384c-6.082,10.832 -10.002,22.718 -13.885,34.518l-3.398,60.859c12.835,-21.835 23.137,-47.504 25.92,-72.679c-2.847,-0.254 -5.694,-0.507 -8.541,-0.761c5.727,-0.874 10.534,-5.024 13.592,-9.944c3.058,-4.92 4.633,-10.594 6.169,-16.179c-3.474,0.516 -6.947,1.033 -10.421,1.549c8.162,-5.446 14.078,-14.154 16.135,-23.747z" fill="#455A64" id="svg_124"/>
    <g opacity="0.3" id="svg_125">
     <path d="m162.303,266.263c-11.031,5.714 -19.489,15.552 -25.571,26.384c-6.082,10.832 -10.002,22.718 -13.885,34.518l-3.398,60.859c12.835,-21.835 23.137,-47.504 25.92,-72.679c-2.847,-0.254 -5.694,-0.507 -8.541,-0.761c5.727,-0.874 10.534,-5.024 13.592,-9.944c3.058,-4.92 4.633,-10.594 6.169,-16.179c-3.474,0.516 -6.947,1.033 -10.421,1.549c8.162,-5.446 14.078,-14.154 16.135,-23.747z" id="svg_126"/>
    </g>
    <path d="m117.55,402.284c0,0 -27.859,-33.345 -27.537,-65.176l11.254,0c0,0 -12.224,-8.038 -11.256,-12.54c0.967,-4.502 1.289,-21.543 1.289,-21.543l10.289,2.572c0,0 -7.717,-3.858 -8.681,-9.967c-0.965,-6.109 2.251,-34.404 2.251,-34.404s12.54,13.183 16.398,26.687s13.986,29.259 11.012,70.416c-2.975,41.156 -5.019,43.955 -5.019,43.955z" fill="#455A64" id="svg_127"/>
    <path d="m131.673,405.431c0,0 30.182,-20.107 36.888,-45.769l-9.048,-2.462c0,0 11.586,-3.788 11.793,-7.619c0.207,-3.831 3.677,-17.602 3.677,-17.602l-8.835,-0.183c0,0 7.048,-1.414 9.16,-6.114c2.112,-4.701 5.718,-28.152 5.718,-28.152s-12.966,7.855 -19.023,17.868s-17.646,20.464 -24.26,54.203c-6.611,33.739 -6.07,35.83 -6.07,35.83z" fill="#455A64" id="svg_128"/>
    <g id="svg_129">
     <path d="m102.767,290.298c0.009,-0.002 0.043,0.115 0.1,0.346c0.061,0.257 0.141,0.596 0.243,1.026c0.209,0.935 0.505,2.263 0.884,3.957c0.386,1.718 0.835,3.824 1.322,6.277c0.495,2.451 1.073,5.24 1.638,8.337c1.193,6.182 2.452,13.574 3.748,21.797c1.256,8.229 2.51,17.297 3.625,26.839c1.092,9.548 1.94,18.665 2.595,26.965c0.614,8.303 1.075,15.788 1.324,22.079c0.157,3.144 0.23,5.991 0.307,8.491c0.086,2.499 0.129,4.653 0.145,6.413c0.018,1.736 0.032,3.095 0.042,4.054c-0.001,0.442 -0.002,0.79 -0.002,1.054c-0.003,0.238 -0.01,0.359 -0.019,0.359c-0.009,0 -0.021,-0.121 -0.035,-0.358c-0.012,-0.264 -0.029,-0.612 -0.049,-1.053c-0.033,-0.957 -0.08,-2.316 -0.14,-4.051c-0.047,-1.759 -0.12,-3.911 -0.233,-6.408c-0.104,-2.498 -0.204,-5.342 -0.384,-8.484c-0.296,-6.286 -0.795,-13.763 -1.435,-22.059c-0.681,-8.293 -1.542,-17.401 -2.634,-26.943c-1.114,-9.536 -2.353,-18.598 -3.582,-26.827c-1.269,-8.222 -2.489,-15.615 -3.635,-21.803c-0.542,-3.1 -1.094,-5.892 -1.562,-8.348c-0.46,-2.457 -0.88,-4.569 -1.235,-6.293c-0.337,-1.703 -0.602,-3.036 -0.788,-3.976c-0.081,-0.434 -0.144,-0.777 -0.192,-1.037c-0.04,-0.231 -0.056,-0.352 -0.048,-0.354z" fill="#263238" id="svg_130"/>
    </g>
    <path d="m113.686,422.703c0,0 -25.494,-28.927 -33.41,-46.413l5.976,-2.553c-4.332,0.715 -8.769,-1.147 -12.128,-3.974c-3.359,-2.827 -5.825,-6.546 -8.244,-10.21l7.872,-1.33c-7.159,-2.009 -13.466,-6.895 -17.2,-13.324c9.29,1.528 17.694,6.63 24.619,13.008c5.609,5.165 10.358,11.16 14.919,17.286c2.225,2.988 4.172,6.172 5.794,9.526c4.283,8.856 11.816,27.361 11.802,37.984z" fill="#455A64" id="svg_131"/>
    <g id="svg_132">
     <path d="m168.962,314.367c0.008,0.004 -0.032,0.104 -0.118,0.294c-0.1,0.215 -0.23,0.492 -0.392,0.841c-0.37,0.765 -0.89,1.84 -1.552,3.209c-1.367,2.777 -3.303,6.816 -5.646,11.83c-2.351,5.01 -5.055,11.019 -7.961,17.733c-2.882,6.724 -5.951,14.159 -9.005,22.03c-3.036,7.88 -5.768,15.448 -8.16,22.363c-2.367,6.924 -4.409,13.189 -6.039,18.477c-1.639,5.285 -2.924,9.576 -3.781,12.55c-0.431,1.458 -0.77,2.603 -1.011,3.418c-0.114,0.367 -0.205,0.659 -0.275,0.885c-0.065,0.199 -0.102,0.299 -0.111,0.297c-0.009,-0.002 0.012,-0.108 0.06,-0.311c0.058,-0.23 0.132,-0.527 0.226,-0.899c0.219,-0.822 0.526,-1.976 0.917,-3.445c0.797,-2.992 2.029,-7.3 3.624,-12.603c1.587,-5.305 3.594,-11.587 5.937,-18.525c2.369,-6.929 5.089,-14.508 8.128,-22.396c3.056,-7.877 6.142,-15.314 9.05,-22.033c2.933,-6.709 5.673,-12.706 8.068,-17.699c2.387,-4.996 4.374,-9.013 5.798,-11.763c0.699,-1.351 1.249,-2.411 1.64,-3.166c0.181,-0.339 0.326,-0.608 0.438,-0.817c0.101,-0.183 0.157,-0.274 0.165,-0.27z" fill="#263238" id="svg_133"/>
    </g>
    <g id="svg_134">
     <path d="m115.848,435.098c-0.018,0.002 -0.059,-0.181 -0.122,-0.532c-0.066,-0.409 -0.149,-0.916 -0.249,-1.535c-0.194,-1.335 -0.526,-3.261 -0.993,-5.626c-0.458,-2.368 -1.113,-5.164 -1.948,-8.239c-0.862,-3.067 -1.919,-6.409 -3.208,-9.853c-1.309,-3.438 -2.724,-6.645 -4.105,-9.517c-1.406,-2.86 -2.763,-5.392 -3.984,-7.471c-1.213,-2.083 -2.236,-3.748 -2.973,-4.878c-0.334,-0.531 -0.607,-0.966 -0.828,-1.317c-0.184,-0.305 -0.274,-0.469 -0.26,-0.48c0.015,-0.01 0.133,0.135 0.346,0.42c0.242,0.336 0.543,0.754 0.91,1.264c0.79,1.098 1.864,2.736 3.121,4.803c1.266,2.062 2.662,4.586 4.098,7.447c1.41,2.873 2.846,6.091 4.162,9.545c1.295,3.46 2.344,6.823 3.184,9.911c0.813,3.096 1.434,5.912 1.847,8.297c0.422,2.382 0.7,4.321 0.832,5.668c0.061,0.625 0.112,1.137 0.152,1.55c0.03,0.354 0.036,0.541 0.018,0.543z" fill="#263238" id="svg_135"/>
    </g>
    <rect x="93.691" y="428.294" width="55.798" height="11.382" fill="#00ffff" id="svg_136"/>
    <polygon points="99.007,439.676 105.043,477.96 138.759,477.96 144.385,439.676   " fill="#00ffff" id="svg_137"/>
    <g id="svg_138">
     <path d="m146.065,439.676c0,0.144 -10.555,0.26 -23.573,0.26c-13.022,0 -23.575,-0.116 -23.575,-0.26c0,-0.144 10.553,-0.26 23.575,-0.26c13.018,0 23.573,0.116 23.573,0.26z" fill="#263238" id="svg_139"/>
    </g>
    <polyline fill="none" opacity="NaN" points="106.89294680361743,430.40741558525764 106.89294680361743,431.08309325713975 106.89294680361743,431.75877092902186 107.56862447549956,431.75877092902186 108.91997981926373,433.110126272786 110.27133516302781,434.46148161655015 111.622690506792,435.13715928843226 114.32540119432034,435.8128369603143 117.02811188184867,435.8128369603143 118.37946722561284,436.4885146321964 119.05514489749494,436.4885146321964 119.73082256937701,436.4885146321964 119.73082256937701,435.8128369603143 " id="svg_826" stroke-linecap="round"/>
   </g>
  </g>
  <g id="Screen">
   <g id="svg_140">
    <g id="svg_141">
     <rect x="82.672" y="57.191" width="249.166" height="156.074" fill="#FFFFFF" id="svg_142"/>
     <rect x="82.672" y="57.191" width="249.166" height="14.303" fill="#455A64" id="svg_143"/>
     <rect x="82.578" y="210.165" width="249.26" height="28.139" fill="#F5F5F5" id="svg_144"/>
     <polygon points="115.328,222.796 113.498,222.529 112.678,220.869 111.86,222.529 110.028,222.796      111.354,224.087 111.338,224.176 111.04,225.911 112.678,225.048 114.315,225.911 114.004,224.087 114.067,224.025    " fill="none" id="svg_145"/>
     <path d="m100.844,221.299c-0.606,0 -1.097,0.491 -1.097,1.097c0,0.606 0.491,1.097 1.097,1.097c0.606,0 1.096,-0.491 1.096,-1.097c0,-0.606 -0.491,-1.097 -1.096,-1.097z" fill="none" id="svg_146"/>
     <path d="m133.818,223.784l2.229,0l0.703,1.459l0.479,0l-2.23,-4.658l-0.123,0l-2.236,4.658l0.484,0l0.694,-1.459zm1.117,-2.323l0.902,1.888l-1.807,0l0.905,-1.888z" fill="#263238" id="svg_147"/>
     <rect x="132.282" y="226.235" width="5.278" height="0.372" fill="#263238" id="svg_148"/>
     <path d="m101.022,220.324c-0.005,0 -0.01,0 -0.015,0l-0.326,0c-0.005,0 -0.01,0 -0.015,0c-1.024,0 -1.854,0.946 -1.854,2.001c0,1.056 1.137,3.23 1.854,3.97c0,0 0.139,0.244 0.357,0c0.717,-0.739 1.854,-2.914 1.854,-3.97c-0.002,-1.055 -0.831,-2.001 -1.855,-2.001zm-0.178,3.169c-0.606,0 -1.097,-0.491 -1.097,-1.097c0,-0.606 0.491,-1.097 1.097,-1.097c0.606,0 1.096,0.491 1.096,1.097c0,0.606 -0.491,1.097 -1.096,1.097z" fill="#263238" id="svg_149"/>
     <path d="m125.737,224.979c0,0.623 -0.507,1.129 -1.129,1.129c-0.623,0 -1.129,-0.507 -1.129,-1.129l0,-3.65c0,-0.403 0.328,-0.731 0.731,-0.731c0.403,0 0.731,0.328 0.731,0.731l0,3.095l0.003,0c-0.048,0.186 -0.21,0.324 -0.405,0.324c-0.196,0 -0.36,-0.141 -0.406,-0.33l0,-2.384l-0.273,0l0,2.278l0,0.002l0,0.11l0.011,0c0.053,0.33 0.331,0.584 0.668,0.584c0.337,0 0.616,-0.254 0.669,-0.584l0.006,0l0,-0.061c0.001,-0.017 0.005,-0.033 0.005,-0.051l-0.005,0l0,-3.017l-0.002,0c-0.018,-0.538 -0.46,-0.971 -1.003,-0.971c-0.542,0 -0.984,0.432 -1.002,0.971l-0.002,0l0,3.812l0.007,0c0.065,0.714 0.666,1.275 1.396,1.275c0.73,0 1.331,-0.561 1.396,-1.275l0.006,0l0,-3.072l-0.273,0l0,2.944z" fill="#263238" id="svg_150"/>
     <path d="m113.723,222.216l-1.045,-2.116l-1.045,2.116l-2.337,0.34l1.691,1.649l-0.399,2.328l2.091,-1.099l2.091,1.099l-0.399,-2.328l1.691,-1.649l-2.339,-0.34zm0.592,3.695l-1.638,-0.863l-1.638,0.863l0.298,-1.735l0.017,-0.088l-1.327,-1.292l1.833,-0.267l0.817,-1.66l0.821,1.66l1.829,0.267l-1.261,1.229l-0.063,0.063l0.312,1.823z" fill="#263238" id="svg_151"/>
     <path d="m154.873,217.498l-0.34,0l0,10.847l0.34,0l0,-10.847zm-0.171,10.846l0,-10.846l0,10.846z" fill="#263238" id="svg_152"/>
     <rect x="143.916" y="221.337" width="4.318" height="4.602" fill="#263238" id="svg_153"/>
     <polygon points="145.28,220.259 145.28,220.613 146.871,220.613 146.871,220.259 148.234,220.259      148.234,220.967 143.916,220.967 143.916,220.259    " fill="#263238" id="svg_154"/>
     <rect x="145.28" y="219.905" width="1.591" height="0.354" fill="#263238" id="svg_155"/>
     <rect x="145.28" y="220.259" width="1.591" height="0.354" fill="#263238" id="svg_156"/>
     <polygon points="164.648,223.802 165.974,222.476 166.135,222.637 164.648,224.123 163.161,222.637      163.322,222.476    " fill="#263238" id="svg_157"/>
     <path d="m318.1,112.021c-0.793,0 -1.44,0.633 -1.467,1.42l-0.003,0l0,5.578l0.01,0c0.095,1.044 0.974,1.865 2.042,1.865c1.068,0 1.948,-0.821 2.043,-1.865l0.009,0l0,-4.495l-0.4,0l0,4.308c0,0.911 -0.741,1.652 -1.653,1.652c-0.911,0 -1.652,-0.741 -1.652,-1.652l0,-5.341c0,-0.59 0.48,-1.07 1.07,-1.07c0.59,0 1.07,0.48 1.07,1.07l0,4.529l0.005,0c-0.07,0.272 -0.308,0.474 -0.592,0.474c-0.287,0 -0.527,-0.206 -0.595,-0.483l0,-3.488l-0.4,0l0,3.333l0,0l0,0.002l0,0.162l0.016,0c0.077,0.483 0.485,0.854 0.978,0.854c0.494,0 0.901,-0.371 0.978,-0.854l0.009,0l0,-0.09c0.002,-0.025 0.007,-0.049 0.007,-0.074l-0.007,0l0,-4.415l-0.002,0c-0.025,-0.787 -0.672,-1.42 -1.466,-1.42z" fill="#263238" id="svg_158"/>
     <path d="m90.871,79.458l-1.703,0l0,-0.617l4.108,0l0,0.617l-1.703,0l0,4.35l-0.702,0l0,-4.35z" fill="#263238" id="svg_159"/>
     <path d="m93.208,81.927c0,-1.121 0.83,-1.915 1.958,-1.915c1.128,0 1.951,0.794 1.951,1.915s-0.823,1.923 -1.951,1.923c-1.128,0 -1.958,-0.802 -1.958,-1.923zm3.221,0c0,-0.802 -0.539,-1.32 -1.263,-1.32c-0.724,0 -1.27,0.518 -1.27,1.32c0,0.802 0.546,1.327 1.27,1.327c0.724,0.001 1.263,-0.525 1.263,-1.327z" fill="#263238" id="svg_160"/>
     <path d="m99.643,80.494c0,-0.284 0.22,-0.482 0.483,-0.482c0.255,0 0.468,0.199 0.468,0.482s-0.213,0.49 -0.468,0.49c-0.262,0 -0.483,-0.206 -0.483,-0.49zm0,2.867c0,-0.284 0.22,-0.483 0.483,-0.483c0.255,0 0.468,0.199 0.468,0.483c0,0.284 -0.213,0.489 -0.468,0.489c-0.262,0 -0.483,-0.205 -0.483,-0.489z" fill="#263238" id="svg_161"/>
     <path d="m90.179,98.031c0,-1.469 1.121,-2.54 2.633,-2.54c0.766,0 1.433,0.263 1.887,0.773l-0.461,0.447c-0.383,-0.404 -0.851,-0.589 -1.397,-0.589c-1.121,0 -1.951,0.809 -1.951,1.909c0,1.1 0.83,1.909 1.951,1.909c0.546,0 1.015,-0.191 1.397,-0.596l0.461,0.447c-0.454,0.511 -1.121,0.78 -1.895,0.78c-1.504,0 -2.625,-1.071 -2.625,-2.54z" fill="#263238" id="svg_162"/>
     <path d="m95.105,98.634c0,-1.121 0.83,-1.916 1.987,-1.916c0.674,0 1.234,0.276 1.533,0.802l-0.518,0.334c-0.241,-0.369 -0.61,-0.54 -1.022,-0.54c-0.738,0 -1.291,0.518 -1.291,1.32c0,0.816 0.553,1.327 1.291,1.327c0.411,0 0.78,-0.17 1.022,-0.54l0.518,0.327c-0.298,0.525 -0.858,0.809 -1.533,0.809c-1.157,0 -1.987,-0.801 -1.987,-1.923z" fill="#263238" id="svg_163"/>
     <path d="m101.087,97.201c0,-0.284 0.22,-0.482 0.483,-0.482c0.255,0 0.468,0.199 0.468,0.482c0,0.284 -0.213,0.49 -0.468,0.49c-0.263,0 -0.483,-0.206 -0.483,-0.49zm0,2.867c0,-0.284 0.22,-0.483 0.483,-0.483c0.255,0 0.468,0.199 0.468,0.483c0,0.284 -0.213,0.489 -0.468,0.489c-0.263,0 -0.483,-0.205 -0.483,-0.489z" fill="#263238" id="svg_164"/>
     <path d="m89.43,116.872l0.262,-0.554c0.369,0.334 1.001,0.575 1.639,0.575c0.858,0 1.228,-0.333 1.228,-0.766c0,-1.213 -3.008,-0.447 -3.008,-2.292c0,-0.766 0.596,-1.419 1.901,-1.419c0.582,0 1.185,0.156 1.597,0.44l-0.234,0.567c-0.433,-0.276 -0.923,-0.404 -1.362,-0.404c-0.844,0 -1.206,0.355 -1.206,0.788c0,1.213 3.008,0.454 3.008,2.278c0,0.759 -0.61,1.412 -1.923,1.412c-0.759,-0.001 -1.504,-0.256 -1.902,-0.625z" fill="#263238" id="svg_165"/>
     <path d="m97.692,113.679l0,3.761l-0.646,0l0,-0.567c-0.276,0.39 -0.745,0.61 -1.277,0.61c-0.972,0 -1.618,-0.532 -1.618,-1.639l0,-2.164l0.681,0l0,2.086c0,0.738 0.369,1.107 1.015,1.107c0.709,0 1.164,-0.44 1.164,-1.249l0,-1.944l0.681,0l0,-0.001z" fill="#263238" id="svg_166"/>
     <path d="m102.88,115.559c0,1.149 -0.802,1.923 -1.901,1.923c-0.554,0 -1.036,-0.213 -1.341,-0.639l0,0.596l-0.653,0l0,-5.265l0.681,0l0,2.072c0.312,-0.404 0.781,-0.603 1.313,-0.603c1.099,0.001 1.901,0.767 1.901,1.916zm-0.688,0c0,-0.802 -0.546,-1.32 -1.27,-1.32c-0.716,0 -1.263,0.518 -1.263,1.32c0,0.802 0.546,1.327 1.263,1.327c0.724,0 1.27,-0.525 1.27,-1.327z" fill="#263238" id="svg_167"/>
     <path d="m102.52,118.631l0.22,-0.525c0.135,0.113 0.333,0.177 0.553,0.177c0.362,0 0.56,-0.227 0.56,-0.66l0,-3.945l0.681,0l0,3.931c0,0.766 -0.426,1.249 -1.199,1.249c-0.311,0 -0.623,-0.07 -0.815,-0.227zm1.214,-6.116c0,-0.248 0.199,-0.447 0.461,-0.447c0.263,0 0.461,0.191 0.461,0.433c0,0.255 -0.191,0.454 -0.461,0.454c-0.263,0 -0.461,-0.191 -0.461,-0.44z" fill="#263238" id="svg_168"/>
     <path d="m109.216,115.786l-3.051,0c0.085,0.66 0.618,1.1 1.362,1.1c0.44,0 0.809,-0.149 1.086,-0.454l0.376,0.44c-0.341,0.397 -0.859,0.61 -1.483,0.61c-1.213,0 -2.022,-0.802 -2.022,-1.923c0,-1.114 0.802,-1.916 1.888,-1.916c1.085,0 1.859,0.78 1.859,1.937c-0.001,0.057 -0.008,0.142 -0.015,0.206zm-3.051,-0.489l2.413,0c-0.071,-0.632 -0.546,-1.079 -1.206,-1.079c-0.653,0 -1.136,0.44 -1.207,1.079z" fill="#263238" id="svg_169"/>
     <path d="m109.822,115.559c0,-1.121 0.83,-1.916 1.987,-1.916c0.674,0 1.235,0.276 1.533,0.802l-0.518,0.334c-0.241,-0.369 -0.61,-0.54 -1.021,-0.54c-0.738,0 -1.292,0.518 -1.292,1.32c0,0.816 0.553,1.327 1.292,1.327c0.411,0 0.78,-0.17 1.021,-0.539l0.518,0.327c-0.298,0.525 -0.858,0.809 -1.533,0.809c-1.157,-0.001 -1.987,-0.803 -1.987,-1.924z" fill="#263238" id="svg_170"/>
     <path d="m116.381,117.22c-0.206,0.177 -0.518,0.262 -0.823,0.262c-0.759,0 -1.192,-0.418 -1.192,-1.178l0,-2.065l-0.639,0l0,-0.561l0.639,0l0,-0.823l0.681,0l0,0.823l1.079,0l0,0.561l-1.079,0l0,2.037c0,0.404 0.213,0.631 0.589,0.631c0.199,0 0.39,-0.064 0.532,-0.177l0.213,0.49z" fill="#263238" id="svg_171"/>
     <path d="m118.787,114.126c0,-0.284 0.22,-0.482 0.483,-0.482c0.255,0 0.468,0.199 0.468,0.482c0,0.284 -0.213,0.49 -0.468,0.49c-0.262,0 -0.483,-0.206 -0.483,-0.49zm0,2.867c0,-0.284 0.22,-0.483 0.483,-0.483c0.255,0 0.468,0.199 0.468,0.483c0,0.284 -0.213,0.489 -0.468,0.489c-0.262,0 -0.483,-0.206 -0.483,-0.489z" fill="#263238" id="svg_172"/>
     <path d="m181.053,82.916c0,0.144 -15.924,0.26 -35.562,0.26c-19.645,0 -35.565,-0.117 -35.565,-0.26s15.92,-0.26 35.565,-0.26c19.639,0 35.562,0.116 35.562,0.26z" fill="#263238" id="svg_173"/>
     <path d="m212.812,99.144c0,0.144 -23.034,0.261 -51.441,0.261c-28.417,0 -51.445,-0.117 -51.445,-0.261c0,-0.144 23.029,-0.26 51.445,-0.26c28.408,0 51.441,0.116 51.441,0.26z" fill="#263238" id="svg_174"/>
     <path d="m174.769,115.246c0,0.018 -0.162,0.036 -0.472,0.052c-0.37,0.013 -0.817,0.03 -1.353,0.049c-1.259,0.021 -2.939,0.049 -4.977,0.083c-4.202,0.047 -10.008,0.076 -16.419,0.076c-6.414,0 -12.22,-0.029 -16.422,-0.076c-2.038,-0.034 -3.718,-0.062 -4.977,-0.083c-0.537,-0.019 -0.983,-0.036 -1.353,-0.049c-0.309,-0.017 -0.472,-0.035 -0.472,-0.052c0,-0.018 0.163,-0.035 0.472,-0.052c0.37,-0.013 0.816,-0.03 1.353,-0.049c1.259,-0.021 2.939,-0.049 4.977,-0.083c4.202,-0.047 10.008,-0.076 16.422,-0.076c6.412,0 12.217,0.029 16.419,0.076c2.038,0.034 3.718,0.062 4.977,0.083c0.537,0.019 0.983,0.035 1.353,0.049c0.309,0.017 0.472,0.034 0.472,0.052z" fill="#263238" id="svg_175"/>
     <path d="m329.149,124.007c0,0.144 -55.18,0.26 -123.232,0.26c-68.076,0 -123.244,-0.117 -123.244,-0.26s55.168,-0.26 123.244,-0.26c68.052,-0.001 123.232,0.116 123.232,0.26z" fill="#E0E0E0" id="svg_176"/>
     <path d="m329.149,106.442c0,0.144 -55.201,0.26 -123.279,0.26c-68.102,0 -123.291,-0.117 -123.291,-0.26c0,-0.144 55.189,-0.26 123.291,-0.26c68.077,-0.001 123.279,0.116 123.279,0.26z" fill="#E0E0E0" id="svg_177"/>
     <path d="m329.149,91.03c0,0.144 -55.18,0.26 -123.232,0.26c-68.076,0 -123.244,-0.117 -123.244,-0.26s55.168,-0.26 123.244,-0.26c68.052,0 123.232,0.116 123.232,0.26z" fill="#E0E0E0" id="svg_178"/>
     <path d="m115.763,145.431c0,0.144 -3.795,0.26 -8.475,0.26c-4.682,0 -8.476,-0.117 -8.476,-0.26c0,-0.144 3.794,-0.26 8.476,-0.26c4.68,0 8.475,0.116 8.475,0.26z" fill="#263238" id="svg_179"/>
     <path d="m212.269,155.241c0,0.144 -25.654,0.26 -57.292,0.26c-31.649,0 -57.298,-0.117 -57.298,-0.26s25.648,-0.26 57.298,-0.26c31.638,0 57.292,0.116 57.292,0.26z" fill="#263238" id="svg_180"/>
     <path d="m193.261,162.095c0,0.122 -21.399,0.22 -47.789,0.22c-26.399,0 -47.793,-0.099 -47.793,-0.22c0,-0.122 21.394,-0.22 47.793,-0.22c26.39,0 47.789,0.099 47.789,0.22z" fill="#263238" id="svg_181"/>
     <g id="svg_182">
      <circle cx="89.651" cy="64.342" r="1.549" fill="#FFFFFF" id="svg_183"/>
      <circle cx="95.163" cy="64.342" r="1.549" fill="#FFFFFF" id="svg_184"/>
      <circle cx="100.674" cy="64.342" r="1.549" fill="#FFFFFF" id="svg_185"/>
     </g>
    </g>
    <g id="svg_186">
     <path d="m332.837,238.304c-0.002,-1.746 -0.083,-71.287 -0.212,-181.113l0.212,0.212c-70.051,0.014 -156.624,0.03 -250.144,0.049l-0.021,0l0.26,-0.26c-0.009,64.932 -0.017,126.508 -0.024,181.113l-0.236,-0.236c147.946,0.139 248.073,0.233 250.165,0.235c-2.09,0.002 -102.22,0.096 -250.165,0.236l-0.236,0l0,-0.236c-0.007,-54.606 -0.016,-116.181 -0.024,-181.113l0,-0.26l0.26,0l0.021,0c93.52,0.018 180.093,0.035 250.144,0.049l0.212,0l0,0.212c-0.128,109.825 -0.21,179.367 -0.212,181.112z" fill="#263238" id="svg_187"/>
    </g>
   </g>
  </g>
  <g id="Character">
   <g id="svg_188">
    <g id="svg_189">
     <rect x="454.52802" y="417.08469" width="5.783" height="3.114" fill="#E0E0E0" id="svg_190"/>
     <rect x="444.97902" y="338.70569" width="13.347" height="66.213" fill="#EBEBEB" id="svg_191"/>
     <path d="m481.95502,342.19769l-62.664,0c-6.668,0 -12.073,-5.405 -12.073,-12.072l0,0c0,-6.668 5.405,-12.073 12.073,-12.073l62.664,0c6.667,0 12.072,5.405 12.072,12.073l0,0c0,6.667 -5.405,12.072 -12.072,12.072z" fill="#455A64" id="svg_192"/>
     <rect x="447.47302" y="404.91869" width="8.458" height="46.997" fill="#E0E0E0" id="svg_193"/>
     <path d="m417.77402,474.82469c-1.664,0.212 71.286,0 71.286,0s-31.122,-3.481 -33.13,-22.909l-8.458,0c0.001,0 -2.127,19.4 -29.698,22.909z" fill="#E0E0E0" id="svg_194"/>
     <g id="svg_195">
      <path d="m484.43502,342.19769c0,0.144 -14.489,0.26 -32.358,0.26c-17.875,0 -32.362,-0.117 -32.362,-0.26s14.486,-0.26 32.362,-0.26c17.869,-0.001 32.358,0.116 32.358,0.26z" fill="#263238" id="svg_196"/>
     </g>
     <g id="svg_197">
      <path d="m458.32602,404.91869c0,0.144 -3.015,0.26 -6.734,0.26c-3.72,0 -6.735,-0.117 -6.735,-0.26s3.015,-0.26 6.735,-0.26c3.718,0 6.734,0.116 6.734,0.26z" fill="#263238" id="svg_198"/>
     </g>
     <path d="m460.31102,423.68269l0,0c-0.943,0 -1.707,-0.764 -1.707,-1.707l0,-6.668c0,-0.943 0.764,-1.707 1.707,-1.707l0,0c0.943,0 1.707,0.764 1.707,1.707l0,6.668c0,0.943 -0.764,1.707 -1.707,1.707z" fill="#E0E0E0" id="svg_199"/>
    </g>
    <g id="svg_200">
     <g id="svg_201">
      <g id="svg_202">
       <path d="m326.98202,149.65669c0,0 2.933,-3.206 3.82,-3.274c0.887,-0.068 10.027,2.66 10.027,2.66s2.046,0.409 2.865,1.364c0.819,0.955 9.829,10.755 9.829,10.755l-10.025,8.818c0,0 -11.741,-2.111 -12.764,-3.339c-1.023,-1.228 -1.842,-3.206 -1.091,-3.82c0,0 -0.955,-1.705 -0.682,-2.865c0.273,-1.159 0.614,-2.081 0.614,-2.081s-1.773,-1.261 -1.842,-2.148c-0.068,-0.887 -0.341,-1.364 -0.341,-1.364l-0.409,-0.682l0,-4.024l-0.001,0z" fill="#FFBE9D" id="svg_203"/>
       <g id="svg_204">
        <path d="m331.06902,151.56869c0.052,0.02 0.011,0.313 -0.16,0.76c-0.172,0.439 -0.492,1.063 -1.105,1.536c-0.625,0.475 -1.38,0.564 -1.867,0.436c-0.501,-0.127 -0.702,-0.399 -0.667,-0.432c0.039,-0.056 0.286,0.103 0.716,0.136c0.423,0.039 1.042,-0.083 1.561,-0.477c0.524,-0.402 0.86,-0.939 1.092,-1.329c0.232,-0.395 0.373,-0.652 0.43,-0.63z" fill="#EB996E" id="svg_205"/>
       </g>
      </g>
      <g id="svg_206">
       <g id="svg_207">
        <path d="m290.96302,128.66869c-3.011,-0.024 -5.471,2.398 -5.495,5.409l-0.476,60.312c-0.024,3.011 2.398,5.471 5.409,5.495l43.574,0.344c3.011,0.024 5.471,-2.398 5.495,-5.409l0.296,-60.345c0.015,-3.087 -2.476,-5.601 -5.563,-5.615l-43.24,-0.191z" fill="#E0E0E0" id="svg_208"/>
        <g id="svg_209">
         <g id="svg_210">
          <g id="svg_211">
           <g id="svg_212">
            <g id="svg_213">
             <path d="m314.81502,146.98969c-0.002,0.218 -4.516,0.359 -10.082,0.315c-5.568,-0.044 -10.078,-0.256 -10.077,-0.474c0.002,-0.218 4.515,-0.359 10.083,-0.316c5.566,0.044 10.078,0.257 10.076,0.475z" fill="#E0E0E0" id="svg_214"/>
            </g>
           </g>
          </g>
         </g>
        </g>
        <g id="svg_215">
         <g id="svg_216">
          <g id="svg_217">
           <g id="svg_218">
            <g id="svg_219">
             <path d="m327.75902,154.83969c-0.002,0.218 -7.431,0.336 -16.592,0.264c-9.164,-0.072 -16.588,-0.308 -16.587,-0.526c0.002,-0.218 7.429,-0.336 16.593,-0.264c9.161,0.072 16.587,0.308 16.586,0.526z" fill="#E0E0E0" id="svg_220"/>
            </g>
           </g>
          </g>
         </g>
        </g>
        <g id="svg_221">
         <g id="svg_222">
          <g id="svg_223">
           <g id="svg_224">
            <g id="svg_225">
             <path d="m330.68302,162.87669c-0.002,0.218 -8.1,0.331 -18.086,0.252c-9.989,-0.079 -18.083,-0.319 -18.081,-0.538c0.002,-0.218 8.098,-0.331 18.087,-0.252c9.987,0.08 18.082,0.32 18.08,0.538z" fill="#E0E0E0" id="svg_226"/>
            </g>
           </g>
          </g>
         </g>
        </g>
        <g id="svg_227">
         <g id="svg_228">
          <g id="svg_229">
           <g id="svg_230">
            <g id="svg_231">
             <path d="m330.62402,170.43769c-0.002,0.218 -8.1,0.331 -18.085,0.253c-9.989,-0.079 -18.083,-0.32 -18.081,-0.538c0.002,-0.218 8.098,-0.331 18.087,-0.252c9.985,0.078 18.08,0.319 18.079,0.537z" fill="#E0E0E0" id="svg_232"/>
            </g>
           </g>
          </g>
         </g>
        </g>
        <g id="svg_233">
         <g id="svg_234">
          <g id="svg_235">
           <g id="svg_236">
            <g id="svg_237">
             <path d="m330.56402,177.99869c-0.002,0.218 -8.1,0.331 -18.085,0.253c-9.989,-0.079 -18.083,-0.32 -18.081,-0.538c0.002,-0.218 8.098,-0.331 18.087,-0.252c9.985,0.078 18.081,0.319 18.079,0.537z" fill="#E0E0E0" id="svg_238"/>
            </g>
           </g>
          </g>
         </g>
        </g>
        <g id="svg_239">
         <g id="svg_240">
          <g id="svg_241">
           <g id="svg_242">
            <g id="svg_243">
             <path d="m330.50402,185.55969c-0.002,0.218 -8.1,0.331 -18.085,0.252c-9.989,-0.079 -18.083,-0.32 -18.081,-0.538c0.002,-0.218 8.098,-0.331 18.087,-0.252c9.986,0.08 18.081,0.32 18.079,0.538z" fill="#E0E0E0" id="svg_244"/>
            </g>
           </g>
          </g>
         </g>
        </g>
       </g>
       <g id="svg_245">
        <g id="svg_246">
         <path d="m288.94802,126.86869c-3.011,-0.024 -5.471,2.398 -5.495,5.409l-0.476,60.312c-0.024,3.011 2.398,5.471 5.409,5.495l43.574,0.344c3.011,0.024 5.471,-2.398 5.495,-5.409l0.296,-60.345c0.015,-3.087 -2.476,-5.601 -5.562,-5.615l-43.241,-0.191z" fill="#FFFFFF" id="svg_247"/>
         <g id="svg_248">
          <path d="m288.94802,126.86869c0,0 0.212,-0.017 0.625,-0.024c0.432,-0.004 1.041,-0.01 1.833,-0.018c1.631,-0.004 4.003,-0.01 7.049,-0.018c6.14,0.008 14.993,0.018 25.925,0.032c1.368,0.003 2.769,0.007 4.201,0.01c0.716,0.002 1.44,0.004 2.172,0.006c0.732,0.014 1.463,-0.033 2.242,0.068c1.534,0.209 2.999,1.088 3.922,2.412c0.463,0.658 0.795,1.421 0.943,2.229c0.159,0.82 0.088,1.631 0.1,2.427c-0.024,6.436 -0.05,13.312 -0.077,20.547c-0.031,7.236 -0.063,14.832 -0.096,22.705c-0.018,3.937 -0.036,7.944 -0.055,12.01c-0.005,1.017 -0.01,2.037 -0.014,3.061c0.03,0.999 -0.067,2.154 -0.56,3.112c-0.908,1.971 -3.039,3.314 -5.237,3.262c-8.352,-0.068 -16.507,-0.134 -24.383,-0.198c-3.938,-0.033 -7.806,-0.066 -11.594,-0.098c-1.894,-0.016 -3.768,-0.033 -5.621,-0.048c-0.933,-0.031 -1.828,0.04 -2.795,-0.096c-0.947,-0.144 -1.843,-0.542 -2.586,-1.125c-1.515,-1.143 -2.315,-3.083 -2.196,-4.889c0.016,-1.763 0.032,-3.502 0.047,-5.216c0.031,-3.428 0.062,-6.756 0.092,-9.974c0.062,-6.434 0.12,-12.428 0.173,-17.903c0.121,-10.931 0.219,-19.783 0.287,-25.922c0.011,-0.758 -0.003,-1.501 0.171,-2.174c0.161,-0.671 0.433,-1.266 0.771,-1.759c0.67,-0.995 1.525,-1.603 2.262,-1.936c0.741,-0.34 1.363,-0.436 1.774,-0.477c0.413,-0.022 0.625,-0.006 0.625,-0.006c0.017,0.061 -0.892,-0.098 -2.355,0.578c-0.716,0.342 -1.54,0.949 -2.178,1.926c-0.321,0.483 -0.578,1.064 -0.726,1.715c-0.16,0.65 -0.14,1.366 -0.143,2.134c-0.029,6.139 -0.07,14.991 -0.122,25.923c-0.033,5.474 -0.07,11.469 -0.109,17.903c-0.021,3.218 -0.043,6.546 -0.066,9.974c-0.012,1.714 -0.023,3.453 -0.035,5.216c-0.105,1.716 0.631,3.447 2.022,4.506c0.681,0.533 1.501,0.896 2.367,1.025c0.849,0.122 1.806,0.058 2.723,0.085c1.853,0.013 3.727,0.027 5.621,0.04c3.788,0.028 7.656,0.056 11.594,0.085c7.876,0.06 16.03,0.123 24.383,0.187c2.005,0.047 3.936,-1.173 4.764,-2.965c0.448,-0.898 0.535,-1.855 0.51,-2.892c0.005,-1.024 0.01,-2.044 0.016,-3.061c0.021,-4.066 0.042,-8.073 0.063,-12.009c0.044,-7.873 0.086,-15.469 0.127,-22.705c0.044,-7.235 0.086,-14.11 0.125,-20.547c-0.008,-0.809 0.059,-1.607 -0.086,-2.346c-0.135,-0.749 -0.44,-1.457 -0.868,-2.069c-0.853,-1.231 -2.211,-2.053 -3.637,-2.253c-0.703,-0.097 -1.458,-0.056 -2.186,-0.072c-0.732,-0.005 -1.455,-0.009 -2.171,-0.014c-1.432,-0.009 -2.833,-0.018 -4.201,-0.027c-10.932,-0.083 -19.785,-0.15 -25.924,-0.197c-3.046,-0.035 -5.418,-0.061 -7.049,-0.08c-0.792,-0.015 -1.401,-0.026 -1.833,-0.034c-0.415,-0.007 -0.626,-0.026 -0.626,-0.026z" fill="#263238" id="svg_249"/>
         </g>
        </g>
        <g id="svg_250">
         <g id="svg_251">
          <g id="svg_252">
           <g id="svg_253">
            <g id="svg_254">
             <path d="m312.80002,145.18869c-0.002,0.218 -4.516,0.359 -10.082,0.315c-5.568,-0.044 -10.078,-0.256 -10.077,-0.474c0.002,-0.218 4.515,-0.359 10.083,-0.316c5.566,0.044 10.078,0.257 10.076,0.475z" fill="#263238" id="svg_255"/>
            </g>
           </g>
          </g>
         </g>
        </g>
        <g id="svg_256">
         <g id="svg_257">
          <g id="svg_258">
           <g id="svg_259">
            <g id="svg_260">
             <path d="m325.74402,153.03869c-0.002,0.218 -7.431,0.336 -16.592,0.264c-9.164,-0.072 -16.589,-0.308 -16.587,-0.526c0.002,-0.218 7.429,-0.337 16.593,-0.264c9.161,0.072 16.587,0.308 16.586,0.526z" fill="#263238" id="svg_261"/>
            </g>
           </g>
          </g>
         </g>
        </g>
        <g id="svg_262">
         <g id="svg_263">
          <g id="svg_264">
           <g id="svg_265">
            <g id="svg_266">
             <path d="m328.66802,161.07669c-0.002,0.218 -8.1,0.331 -18.085,0.252c-9.989,-0.079 -18.083,-0.319 -18.081,-0.538c0.002,-0.218 8.098,-0.331 18.087,-0.252c9.986,0.079 18.081,0.32 18.079,0.538z" fill="#263238" id="svg_267"/>
            </g>
           </g>
          </g>
         </g>
        </g>
        <g id="svg_268">
         <g id="svg_269">
          <g id="svg_270">
           <g id="svg_271">
            <g id="svg_272">
             <path d="m328.60902,168.63769c-0.002,0.218 -8.1,0.331 -18.085,0.253c-9.989,-0.079 -18.083,-0.32 -18.081,-0.538c0.002,-0.218 8.098,-0.331 18.087,-0.252c9.985,0.078 18.08,0.319 18.079,0.537z" fill="#263238" id="svg_273"/>
            </g>
           </g>
          </g>
         </g>
        </g>
        <g id="svg_274">
         <g id="svg_275">
          <g id="svg_276">
           <g id="svg_277">
            <g id="svg_278">
             <path d="m328.54902,176.19869c-0.002,0.218 -8.1,0.331 -18.085,0.253c-9.989,-0.079 -18.083,-0.319 -18.081,-0.538c0.002,-0.218 8.098,-0.331 18.087,-0.252c9.985,0.078 18.081,0.319 18.079,0.537z" fill="#263238" id="svg_279"/>
            </g>
           </g>
          </g>
         </g>
        </g>
        <g id="svg_280">
         <g id="svg_281">
          <g id="svg_282">
           <g id="svg_283">
            <g id="svg_284">
             <path d="m328.48902,183.75969c-0.002,0.218 -8.1,0.331 -18.085,0.252c-9.989,-0.079 -18.083,-0.319 -18.081,-0.538c0.002,-0.218 8.098,-0.331 18.087,-0.252c9.986,0.079 18.081,0.32 18.079,0.538z" fill="#263238" id="svg_285"/>
            </g>
           </g>
          </g>
         </g>
        </g>
       </g>
       <path d="m295.01802,133.29969l0,-5.02c0,-0.838 -0.679,-1.517 -1.517,-1.517l0,0c-0.838,0 -1.517,0.679 -1.517,1.517l0,7.033c0,1.344 1.09,2.435 2.435,2.435l0,0c1.344,0 2.434,-1.09 2.434,-2.435l0,-8.075c0,-1.871 -1.516,-3.387 -3.387,-3.387l0,0c-1.472,0 -2.724,0.938 -3.191,2.25l0,0.395" fill="none" stroke="#263238" stroke-width="0.75" stroke-linecap="round" stroke-linejoin="round" stroke-miterlimit="10" id="svg_286"/>
      </g>
      <path d="m347.64102,156.57569l-4.778,-2.969l-12.236,-6.457c0,0 -2.432,2.361 1.674,5.758l5.062,4.009c0,0 4.497,8.249 5.461,8.855c0.964,0.606 5.38,2.207 5.38,2.207l-0.563,-11.403z" fill="#FFBE9D" id="svg_287"/>
      <g id="svg_288">
       <path d="m348.67202,168.17069c-0.004,0.014 -0.175,-0.022 -0.494,-0.109c-0.319,-0.088 -0.787,-0.228 -1.383,-0.43c-0.595,-0.204 -1.321,-0.463 -2.141,-0.829c-0.41,-0.181 -0.842,-0.396 -1.285,-0.657c-0.444,-0.248 -0.893,-0.623 -1.235,-1.077c-1.402,-1.794 -2.677,-4.155 -4.131,-6.74c-0.183,-0.32 -0.369,-0.644 -0.556,-0.971c-0.177,-0.328 -0.426,-0.546 -0.723,-0.81c-0.576,-0.502 -1.207,-0.983 -1.845,-1.476c-1.274,-0.992 -2.635,-1.964 -3.891,-3.179c-1.321,-1.299 -1.712,-3.463 -0.695,-4.989l0.101,-0.152l0.168,0.095c4.895,2.762 9.109,5.287 12.3,6.761c1.547,0.849 2.728,1.607 3.545,2.124c0.375,0.247 0.68,0.448 0.926,0.61c0.208,0.143 0.313,0.224 0.307,0.235c-0.007,0.011 -0.125,-0.049 -0.346,-0.171c-0.256,-0.146 -0.573,-0.327 -0.963,-0.55c-0.838,-0.477 -2.045,-1.201 -3.595,-2.01c-3.22,-1.406 -7.482,-3.897 -12.379,-6.638l0.269,-0.057c-0.407,0.625 -0.579,1.477 -0.447,2.27c0.144,0.797 0.501,1.593 1.111,2.173c1.208,1.169 2.574,2.154 3.843,3.148c0.639,0.496 1.268,0.98 1.86,1.502c0.15,0.127 0.292,0.27 0.433,0.411c0.144,0.156 0.27,0.331 0.362,0.496c0.188,0.333 0.373,0.662 0.557,0.987c1.432,2.594 2.685,4.971 4.022,6.742c0.639,0.898 1.609,1.303 2.386,1.707c0.8,0.382 1.514,0.663 2.097,0.889c0.553,0.206 1.001,0.373 1.353,0.504c0.312,0.114 0.474,0.177 0.469,0.191z" fill="#EB996E" id="svg_289"/>
      </g>
     </g>
     <g id="svg_290">
      <g id="svg_291">
       <path d="m480.69902,133.29769c-0.169,-2.969 -0.54,-17.419 -0.711,-19.615c-0.231,-2.965 -1.456,-5.922 -3.635,-7.947c-2.178,-2.025 -5.567,-2.892 -8.241,-1.59l0,0c-1.769,0.447 -3.152,1.814 -3.646,3.57c-6.082,21.624 -5.122,44.647 -7.808,67.01c7.937,1.291 18.619,0.763 26.649,0.343c0,-17.857 -1.511,-22.494 -2.608,-41.771z" fill="#263238" id="svg_292"/>
       <g id="svg_293">
        <path d="m477.35302,163.78469c-0.018,0 -0.039,-0.199 -0.062,-0.577c-0.02,-0.436 -0.046,-0.985 -0.077,-1.658c-0.046,-1.511 -0.11,-3.578 -0.187,-6.099c-0.109,-5.215 -0.258,-12.299 -0.421,-20.126c-0.06,-3.929 -0.117,-7.669 -0.17,-11.083c-0.021,-1.7 -0.04,-3.318 -0.059,-4.836c-0.013,-1.512 -0.051,-2.916 -0.287,-4.164c-0.409,-2.533 -1.861,-4.216 -3.095,-4.889c-1.248,-0.699 -2.11,-0.566 -2.093,-0.638c0,-0.009 0.049,-0.017 0.147,-0.023c0.098,-0.005 0.245,-0.018 0.436,0.004c0.382,0.027 0.952,0.141 1.608,0.479c0.651,0.338 1.376,0.909 1.998,1.751c0.631,0.837 1.103,1.964 1.36,3.245c0.267,1.283 0.326,2.714 0.358,4.227c0.034,1.518 0.069,3.136 0.107,4.835c0.065,3.414 0.136,7.153 0.211,11.082c0.105,7.828 0.199,14.913 0.269,20.129c0.009,2.523 0.017,4.59 0.022,6.102c-0.008,0.674 -0.015,1.223 -0.02,1.66c-0.013,0.379 -0.028,0.578 -0.045,0.579z" fill="#455A64" id="svg_294"/>
       </g>
       <g id="svg_295">
        <path d="m470.13602,155.58669c-0.036,0 -0.069,-0.464 -0.097,-1.303c-0.028,-0.839 -0.047,-2.053 -0.047,-3.553c-0.007,-3 0.059,-7.143 0.173,-11.717c0.126,-4.52 0.239,-8.607 0.326,-11.711c0.047,-1.417 0.087,-2.606 0.118,-3.549c0.034,-0.838 0.07,-1.302 0.106,-1.302c0.036,0 0.069,0.464 0.097,1.303c0.027,0.839 0.046,2.053 0.047,3.553c0.007,3 -0.059,7.144 -0.173,11.719c-0.126,4.518 -0.239,8.605 -0.326,11.709c-0.047,1.417 -0.087,2.607 -0.118,3.549c-0.034,0.838 -0.07,1.302 -0.106,1.302z" fill="#455A64" id="svg_296"/>
       </g>
      </g>
      <g id="svg_297">
       <g id="svg_298">
        <g id="svg_299">
         <path d="m443.61502,87.51469c5.957,-0.616 10.988,1.992 15.739,5.638c4.751,3.646 8.165,8.904 9.961,14.617c1.891,6.018 1.914,14.547 -0.231,20.479c-2.145,5.932 -6.697,10.074 -12.34,11.668c-8.29,2.342 -17.632,1.392 -24.149,-4.241c-6.517,-5.633 -9.876,-14.461 -9.643,-23.072c0.161,-5.933 1.971,-11.894 5.6,-16.591c3.63,-4.696 9.147,-8.021 15.063,-8.498" fill="#263238" id="svg_300"/>
        </g>
        <g id="svg_301">
         <g id="svg_302">
          <g id="svg_303">
           <path d="m459.06002,108.64669c-0.714,-2.311 -0.215,-4.805 -0.4,-7.216c-0.407,-5.31 -4.369,-9.805 -9.137,-12.177c-4.435,-2.206 -10.032,-2.155 -15.642,-0.739c-3.845,0.971 -7.529,2.862 -10.239,5.756c-3.598,3.842 -5.147,9.501 -4.009,14.639l27.172,-2.158c2.383,2.25 4.824,4.539 7.805,5.901c0.875,0.4 1.823,0.72 2.78,0.632c0.957,-0.088 1.921,-0.672 2.207,-1.59c0.311,-1.003 -0.227,-2.044 -0.537,-3.048z" fill="#263238" id="svg_304"/>
          </g>
         </g>
         <g id="svg_305">
          <g id="svg_306">
           <path d="m432.81902,95.90769l23.172,6.516c2.263,0.3 3.92,2.283 3.815,4.563l-3.611,50.834c-0.246,3.473 -1.631,6.767 -3.94,9.373l-2.43,2.744c-5.541,6.255 -15.847,4.914 -19.268,-2.71c-0.239,-0.533 -0.398,-0.996 -0.454,-1.367c-0.049,-0.463 -0.15,-0.773 -0.146,-1.163c-0.412,-3.982 0.096,-7.727 0.096,-7.727c0.068,-4.543 0.118,-6.406 0.114,-6.363c0,0 -9.537,-1.845 -11.19,-14.396c-0.822,-6.242 -0.239,-16.425 0.507,-24.741c0.672,-7.484 5.884,-16.552 13.335,-15.563z" fill="#FFBE9D" id="svg_307"/>
          </g>
         </g>
         <g id="svg_308">
          <g id="svg_309">
           <g id="svg_310">
            <g id="svg_311">
             <g id="svg_312">
              <g id="svg_313">
               <g id="svg_314">
                <g id="svg_315">
                 <g id="svg_316">
                  <g id="svg_317">
                   <g id="svg_318">
                    <g id="svg_319">
                     <g id="svg_320">
                      <g id="svg_321">
                       <g id="svg_322">
                        <g id="svg_323">
                         <g id="svg_324">
                          <g id="svg_325">
                           <path d="m422.43502,121.24969c-0.053,0.846 0.62,1.588 1.503,1.658c0.88,0.071 1.638,-0.555 1.691,-1.401c0.052,-0.846 -0.621,-1.588 -1.501,-1.659c-0.883,-0.071 -1.641,0.556 -1.693,1.402z" fill="#263238" id="svg_326"/>
                          </g>
                         </g>
                        </g>
                       </g>
                      </g>
                     </g>
                    </g>
                   </g>
                  </g>
                 </g>
                </g>
               </g>
              </g>
             </g>
            </g>
            <g id="svg_327">
             <g id="svg_328">
              <g id="svg_329">
               <g id="svg_330">
                <g id="svg_331">
                 <g id="svg_332">
                  <g id="svg_333">
                   <g id="svg_334">
                    <g id="svg_335">
                     <g id="svg_336">
                      <g id="svg_337">
                       <g id="svg_338">
                        <g id="svg_339">
                         <g id="svg_340">
                          <g id="svg_341">
                           <g id="svg_342">
                            <path d="m421.55402,116.83269c0.193,0.214 1.431,-0.652 3.156,-0.602c1.723,0.026 2.966,0.947 3.158,0.74c0.095,-0.091 -0.098,-0.473 -0.638,-0.89c-0.532,-0.414 -1.447,-0.827 -2.522,-0.851c-1.075,-0.023 -1.989,0.349 -2.519,0.74c-0.54,0.393 -0.73,0.766 -0.635,0.863z" fill="#263238" id="svg_343"/>
                           </g>
                          </g>
                         </g>
                        </g>
                       </g>
                      </g>
                     </g>
                    </g>
                   </g>
                  </g>
                 </g>
                </g>
               </g>
              </g>
             </g>
            </g>
           </g>
           <g id="svg_344">
            <g id="svg_345">
             <g id="svg_346">
              <g id="svg_347">
               <g id="svg_348">
                <g id="svg_349">
                 <g id="svg_350">
                  <g id="svg_351">
                   <g id="svg_352">
                    <g id="svg_353">
                     <g id="svg_354">
                      <g id="svg_355">
                       <g id="svg_356">
                        <g id="svg_357">
                         <g id="svg_358">
                          <g id="svg_359">
                           <path d="m437.88102,121.87269c-0.053,0.846 0.62,1.587 1.502,1.658c0.88,0.071 1.638,-0.555 1.691,-1.401c0.053,-0.846 -0.62,-1.589 -1.501,-1.659c-0.882,-0.071 -1.64,0.556 -1.692,1.402z" fill="#263238" id="svg_360"/>
                          </g>
                         </g>
                        </g>
                       </g>
                      </g>
                     </g>
                    </g>
                   </g>
                  </g>
                 </g>
                </g>
               </g>
              </g>
             </g>
            </g>
            <g id="svg_361">
             <g id="svg_362">
              <g id="svg_363">
               <g id="svg_364">
                <g id="svg_365">
                 <g id="svg_366">
                  <g id="svg_367">
                   <g id="svg_368">
                    <g id="svg_369">
                     <g id="svg_370">
                      <g id="svg_371">
                       <g id="svg_372">
                        <g id="svg_373">
                         <g id="svg_374">
                          <g id="svg_375">
                           <g id="svg_376">
                            <path d="m437.91902,117.48269c0.194,0.214 1.433,-0.652 3.157,-0.601c1.723,0.025 2.966,0.946 3.159,0.74c0.094,-0.091 -0.096,-0.474 -0.639,-0.89c-0.532,-0.414 -1.447,-0.827 -2.521,-0.852c-1.075,-0.022 -1.989,0.349 -2.519,0.74c-0.541,0.393 -0.732,0.767 -0.637,0.863z" fill="#263238" id="svg_377"/>
                           </g>
                          </g>
                         </g>
                        </g>
                       </g>
                      </g>
                     </g>
                    </g>
                   </g>
                  </g>
                 </g>
                </g>
               </g>
              </g>
             </g>
            </g>
           </g>
           <g id="svg_378">
            <g id="svg_379">
             <g id="svg_380">
              <g id="svg_381">
               <g id="svg_382">
                <g id="svg_383">
                 <g id="svg_384">
                  <g id="svg_385">
                   <g id="svg_386">
                    <g id="svg_387">
                     <g id="svg_388">
                      <g id="svg_389">
                       <g id="svg_390">
                        <g id="svg_391">
                         <g id="svg_392">
                          <g id="svg_393">
                           <path d="m431.90102,130.22969c0.011,-0.098 -1.056,-0.311 -2.788,-0.58c-0.439,-0.057 -0.854,-0.156 -0.92,-0.458c-0.095,-0.322 0.102,-0.791 0.329,-1.298c0.442,-1.055 0.905,-2.161 1.392,-3.319c1.935,-4.727 3.349,-8.619 3.158,-8.695c-0.191,-0.076 -1.915,3.693 -3.851,8.42c-0.466,1.166 -0.913,2.277 -1.337,3.341c-0.18,0.496 -0.482,1.056 -0.275,1.723c0.11,0.332 0.427,0.58 0.707,0.663c0.28,0.094 0.528,0.105 0.745,0.124c1.746,0.14 2.831,0.177 2.84,0.079z" fill="#263238" id="svg_394"/>
                          </g>
                         </g>
                        </g>
                       </g>
                      </g>
                     </g>
                    </g>
                   </g>
                  </g>
                 </g>
                </g>
               </g>
              </g>
             </g>
            </g>
           </g>
           <g id="svg_395">
            <g id="svg_396">
             <g id="svg_397">
              <g id="svg_398">
               <g id="svg_399">
                <g id="svg_400">
                 <g id="svg_401">
                  <g id="svg_402">
                   <g id="svg_403">
                    <g id="svg_404">
                     <g id="svg_405">
                      <g id="svg_406">
                       <g id="svg_407">
                        <g id="svg_408">
                         <g id="svg_409">
                          <path d="m430.16702,150.60869c0,0 8.393,0.766 16.857,-4.02c0,0 -4.438,8.54 -16.917,7.038l0.06,-3.018z" fill="#EB996E" id="svg_410"/>
                         </g>
                        </g>
                       </g>
                      </g>
                     </g>
                    </g>
                   </g>
                  </g>
                 </g>
                </g>
               </g>
              </g>
             </g>
            </g>
           </g>
           <g id="svg_411">
            <g id="svg_412">
             <g id="svg_413">
              <g id="svg_414">
               <g id="svg_415">
                <g id="svg_416">
                 <g id="svg_417">
                  <g id="svg_418">
                   <g id="svg_419">
                    <g id="svg_420">
                     <g id="svg_421">
                      <g id="svg_422">
                       <g id="svg_423">
                        <g id="svg_424">
                         <g id="svg_425">
                          <path d="m432.52002,134.40569c0.642,-0.804 1.741,-1.225 2.817,-1.08c0.746,0.101 1.493,0.481 1.931,1.103c0.439,0.621 0.511,1.489 0.082,2.059c-0.483,0.642 -1.46,0.768 -2.276,0.512c-0.817,-0.256 -1.511,-0.817 -2.17,-1.374c-0.182,-0.154 -0.368,-0.315 -0.479,-0.523c-0.111,-0.208 -0.129,-0.476 0.02,-0.642" fill="#EB996E" id="svg_426"/>
                         </g>
                        </g>
                       </g>
                      </g>
                     </g>
                    </g>
                   </g>
                  </g>
                 </g>
                </g>
               </g>
              </g>
             </g>
            </g>
           </g>
           <g id="svg_427">
            <g id="svg_428">
             <g id="svg_429">
              <g id="svg_430">
               <g id="svg_431">
                <g id="svg_432">
                 <g id="svg_433">
                  <g id="svg_434">
                   <g id="svg_435">
                    <g id="svg_436">
                     <g id="svg_437">
                      <g id="svg_438">
                       <g id="svg_439">
                        <g id="svg_440">
                         <g id="svg_441">
                          <g id="svg_442">
                           <path d="m436.94502,131.55769c-0.28,-0.024 -0.333,1.848 -1.971,3.135c-1.635,1.291 -3.625,1.028 -3.646,1.289c-0.029,0.117 0.435,0.376 1.276,0.421c0.826,0.05 2.039,-0.183 3.041,-0.97c1,-0.789 1.449,-1.865 1.533,-2.631c0.092,-0.782 -0.105,-1.251 -0.233,-1.244z" fill="#263238" id="svg_443"/>
                          </g>
                         </g>
                        </g>
                       </g>
                      </g>
                     </g>
                    </g>
                   </g>
                  </g>
                 </g>
                </g>
               </g>
              </g>
             </g>
            </g>
           </g>
          </g>
         </g>
         <g id="svg_444">
          <g id="svg_445">
           <g id="svg_446">
            <g id="svg_447">
             <g id="svg_448">
              <g id="svg_449">
               <g id="svg_450">
                <g id="svg_451">
                 <g id="svg_452">
                  <g id="svg_453">
                   <g id="svg_454">
                    <g id="svg_455">
                     <g id="svg_456">
                      <g id="svg_457">
                       <path d="m438.35002,112.38169c0.157,0.473 1.886,0.297 3.902,0.595c2.024,0.257 3.64,0.893 3.92,0.479c0.125,-0.198 -0.148,-0.647 -0.796,-1.118c-0.642,-0.471 -1.674,-0.929 -2.885,-1.097c-1.211,-0.165 -2.329,-0.002 -3.074,0.278c-0.75,0.28 -1.134,0.639 -1.067,0.863z" fill="#263238" id="svg_458"/>
                      </g>
                     </g>
                    </g>
                   </g>
                  </g>
                 </g>
                </g>
               </g>
              </g>
             </g>
            </g>
           </g>
          </g>
         </g>
         <g id="svg_459">
          <g id="svg_460">
           <g id="svg_461">
            <g id="svg_462">
             <g id="svg_463">
              <g id="svg_464">
               <g id="svg_465">
                <g id="svg_466">
                 <g id="svg_467">
                  <g id="svg_468">
                   <g id="svg_469">
                    <g id="svg_470">
                     <g id="svg_471">
                      <g id="svg_472">
                       <path d="m422.25502,109.30269c0.293,0.399 1.492,0.025 2.921,0.043c1.43,-0.031 2.632,0.333 2.921,-0.069c0.128,-0.196 -0.053,-0.593 -0.572,-0.978c-0.511,-0.383 -1.375,-0.709 -2.357,-0.705c-0.982,0.005 -1.843,0.338 -2.35,0.725c-0.515,0.39 -0.691,0.789 -0.563,0.984z" fill="#263238" id="svg_473"/>
                      </g>
                     </g>
                    </g>
                   </g>
                  </g>
                 </g>
                </g>
               </g>
              </g>
             </g>
            </g>
           </g>
          </g>
         </g>
         <g id="svg_474">
          <g id="svg_475">
           <path d="m463.60402,105.29969c-1.968,-7.315 -11.966,-17.761 -19.539,-17.577l-12.383,6.682c0.543,4.141 3.552,7.862 7.488,9.258c2.102,0.746 4.66,1.041 5.844,2.932c1.209,1.93 0.329,4.621 1.445,6.606c1.548,2.751 6.117,2.832 7.238,5.783c0.49,1.289 0.135,2.787 0.648,4.067c0.683,1.706 4.817,4.017 6.592,3.542s1.916,-3.454 2.559,-4.99c1.099,-2.623 0.759,-4.024 0.505,-5.529c-0.601,-3.563 0.542,-7.284 -0.397,-10.774z" fill="#263238" id="svg_476"/>
          </g>
         </g>
         <g id="svg_477">
          <g id="svg_478">
           <g id="svg_479">
            <g id="svg_480">
             <g id="svg_481">
              <path d="m455.70802,127.83269c0.027,-0.931 1.161,-3.096 2.084,-3.216c2.465,-0.317 6.884,-0.003 6.759,6.232c-0.17,8.523 -8.692,6.594 -8.702,6.349c-0.008,-0.19 -0.234,-6.151 -0.141,-9.365z" fill="#FFBE9D" id="svg_482"/>
             </g>
            </g>
           </g>
          </g>
         </g>
         <g id="svg_483">
          <g id="svg_484">
           <g id="svg_485">
            <g id="svg_486">
             <g id="svg_487">
              <g id="svg_488">
               <path d="m458.51702,134.02169c0.038,-0.026 0.146,0.107 0.395,0.227c0.243,0.117 0.662,0.203 1.11,0.045c0.907,-0.312 1.694,-1.727 1.766,-3.262c0.037,-0.776 -0.111,-1.517 -0.373,-2.135c-0.248,-0.629 -0.642,-1.072 -1.094,-1.161c-0.449,-0.114 -0.775,0.151 -0.884,0.389c-0.119,0.236 -0.068,0.408 -0.114,0.421c-0.024,0.021 -0.18,-0.146 -0.104,-0.496c0.039,-0.169 0.143,-0.368 0.346,-0.528c0.208,-0.162 0.51,-0.241 0.826,-0.201c0.656,0.059 1.236,0.675 1.524,1.352c0.325,0.681 0.509,1.516 0.467,2.386c-0.089,1.716 -1,3.306 -2.24,3.637c-0.602,0.144 -1.099,-0.046 -1.353,-0.253c-0.261,-0.214 -0.302,-0.406 -0.272,-0.421z" fill="#EB996E" id="svg_489"/>
              </g>
             </g>
            </g>
           </g>
          </g>
         </g>
        </g>
        <g id="svg_490">
         <g id="svg_491">
          <path d="m470.58302,117.11669c0.06,0.014 0.35,-0.936 0.485,-2.53c0.138,-1.589 0.048,-3.828 -0.577,-6.197c-0.633,-2.368 -1.665,-4.357 -2.574,-5.668c-0.907,-1.317 -1.63,-1.997 -1.676,-1.956c-0.164,0.1 2.502,3.11 3.704,7.768c1.267,4.641 0.446,8.577 0.638,8.583z" fill="#FF725E" id="svg_492"/>
         </g>
        </g>
        <g id="svg_493">
         <path d="m434.32002,91.99669c-1.009,3.409 -6.558,7.501 -9.042,10.044c-4.74,4.851 -5.621,5.554 -6.579,21.042c-1.82,-4.104 -3.008,-11.146 -2.555,-15.612c0.453,-4.467 2.395,-8.844 5.719,-11.862c3.322,-3.019 8.065,-4.545 12.457,-3.612" fill="#263238" id="svg_494"/>
        </g>
       </g>
       <g id="svg_495">
        <path d="m467.94402,105.47169c0.005,0.035 -0.517,0.127 -1.468,0.264c-0.475,0.075 -1.058,0.151 -1.74,0.188c-0.681,0.044 -1.456,0.127 -2.316,0.116c-1.719,0.051 -3.771,-0.055 -6.03,-0.332c-2.254,-0.312 -4.713,-0.814 -7.225,-1.589c-2.506,-0.8 -4.811,-1.792 -6.84,-2.824c-2.012,-1.064 -3.757,-2.149 -5.139,-3.173c-0.712,-0.482 -1.301,-0.993 -1.835,-1.418c-0.538,-0.42 -0.974,-0.815 -1.32,-1.148c-0.702,-0.656 -1.077,-1.029 -1.054,-1.055c0.024,-0.025 0.445,0.299 1.183,0.906c0.365,0.308 0.816,0.679 1.367,1.075c0.547,0.401 1.146,0.888 1.866,1.348c1.397,0.978 3.143,2.02 5.145,3.049c2.018,0.998 4.302,1.965 6.779,2.756c2.484,0.766 4.91,1.276 7.137,1.61c2.231,0.298 4.259,0.441 5.965,0.436c0.853,0.034 1.623,-0.024 2.301,-0.04c0.679,-0.01 1.261,-0.056 1.737,-0.101c0.952,-0.076 1.482,-0.102 1.487,-0.068z" fill="#455A64" id="svg_496"/>
       </g>
       <g id="svg_497">
        <path d="m468.43202,111.62369c0.004,0.035 -0.352,0.096 -1.001,0.177c-0.648,0.089 -1.594,0.151 -2.763,0.169c-2.338,0.041 -5.592,-0.224 -9.057,-1.136c-3.463,-0.922 -6.423,-2.302 -8.434,-3.494c-1.008,-0.594 -1.798,-1.117 -2.317,-1.514c-0.524,-0.391 -0.803,-0.62 -0.783,-0.649c0.051,-0.073 1.235,0.751 3.275,1.85c2.036,1.101 4.974,2.408 8.389,3.317c3.416,0.899 6.615,1.217 8.93,1.267c2.316,0.056 3.753,-0.075 3.761,0.013z" fill="#455A64" id="svg_498"/>
       </g>
      </g>
      <g id="svg_499">
       <path d="m470.56602,111.97469c0.029,-0.004 0.125,0.456 0.204,1.298c0.088,0.842 0.135,2.065 0.12,3.576c-0.019,1.511 -0.11,3.311 -0.342,5.298c-0.246,1.983 -0.576,4.17 -1.286,6.387c-1.485,4.471 -4.596,7.673 -7.217,9.197c-1.31,0.782 -2.463,1.226 -3.264,1.495c-0.802,0.27 -1.261,0.367 -1.27,0.339c-0.013,-0.04 0.424,-0.203 1.198,-0.528c0.772,-0.324 1.887,-0.814 3.142,-1.618c1.261,-0.789 2.623,-1.95 3.853,-3.484c1.191,-1.56 2.424,-3.38 3.062,-5.559c0.694,-2.163 1.037,-4.327 1.306,-6.287c0.255,-1.966 0.384,-3.75 0.45,-5.249c0.062,-1.499 0.07,-2.715 0.045,-3.555c-0.016,-0.841 -0.043,-1.306 -0.001,-1.31z" fill="#455A64" id="svg_500"/>
      </g>
     </g>
     <g id="svg_501">
      <g id="svg_502">
       <path d="m353.52202,161.16069l24.719,25.028c3.253,-0.75 43.142,-24.596 43.142,-24.596l6.305,30.682c0,0 -40.824,18.768 -52.059,16.491c-1.834,-0.372 -4.852,-0.606 -6.743,-3.037c-8.987,-11.55 -26.062,-35.875 -26.062,-35.875l10.698,-8.693z" fill="#FFBE9D" id="svg_503"/>
      </g>
     </g>
     <g id="svg_504">
      <g id="svg_505">
       <g id="svg_506">
        <g id="svg_507">
         <g id="svg_508">
          <polygon points="385.9400131702423,390.5527038574219 398.1420090198517,416.99871826171875 417.83201146125793,407.9017028808594 405.2110092639923,375.1717224121094 " fill="#FFBE9D" id="svg_509"/>
         </g>
        </g>
       </g>
      </g>
      <g id="svg_510">
       <g id="svg_511">
        <g id="svg_512">
         <g id="svg_513">
          <g id="svg_514">
           <g id="svg_515">
            <g id="svg_516">
             <g id="svg_517">
              <g id="svg_518">
               <g id="svg_519">
                <g id="svg_520">
                 <g id="svg_521">
                  <g id="svg_522">
                   <g id="svg_523">
                    <path d="m395.83602,415.23369l7.129,13.595c0,0 -18.249,18.869 -16.535,23.087l42.9,-20.569l-11.786,-27.269l-21.708,11.156z" fill="#455A64" id="svg_524"/>
                   </g>
                  </g>
                 </g>
                </g>
               </g>
              </g>
             </g>
            </g>
           </g>
          </g>
         </g>
         <g id="svg_525">
          <g id="svg_526">
           <g id="svg_527">
            <g id="svg_528">
             <g id="svg_529">
              <g id="svg_530">
               <g id="svg_531">
                <g id="svg_532">
                 <g id="svg_533">
                  <g id="svg_534">
                   <g id="svg_535">
                    <g id="svg_536">
                     <path d="m415.34002,420.60969c0.939,-0.171 1.96,0.487 2.17,1.418c0.209,0.931 -0.451,1.976 -1.387,2.163c-0.936,0.188 -2.186,-0.565 -2.29,-1.514c-0.104,-0.949 0.739,-2.133 1.692,-2.09" fill="#E0E0E0" id="svg_537"/>
                    </g>
                   </g>
                  </g>
                 </g>
                </g>
               </g>
              </g>
             </g>
            </g>
           </g>
          </g>
         </g>
         <g opacity="0.6" id="svg_538">
          <g id="svg_539">
           <g id="svg_540">
            <g id="svg_541">
             <g id="svg_542">
              <g id="svg_543">
               <g id="svg_544">
                <g id="svg_545">
                 <g id="svg_546">
                  <g id="svg_547">
                   <g id="svg_548">
                    <path d="m429.33002,431.34669l-1.785,-3.419l-40.464,21c0,0 -1.512,1.747 -0.651,2.989l42.9,-20.57z" fill="#FFFFFF" id="svg_549"/>
                   </g>
                  </g>
                 </g>
                </g>
               </g>
              </g>
             </g>
            </g>
           </g>
          </g>
         </g>
         <g id="svg_550">
          <g id="svg_551">
           <g id="svg_552">
            <g id="svg_553">
             <g id="svg_554">
              <g id="svg_555">
               <g id="svg_556">
                <g id="svg_557">
                 <g id="svg_558">
                  <g id="svg_559">
                   <g id="svg_560">
                    <g id="svg_561">
                     <path d="m402.16502,428.94369c0.107,0.207 1.2,-0.201 2.554,-0.021c1.358,0.144 2.325,0.797 2.478,0.621c0.173,-0.133 -0.739,-1.236 -2.382,-1.424c-1.641,-0.204 -2.788,0.654 -2.65,0.824z" fill="#263238" id="svg_562"/>
                    </g>
                   </g>
                  </g>
                 </g>
                </g>
               </g>
              </g>
             </g>
            </g>
           </g>
          </g>
         </g>
         <g id="svg_563">
          <g id="svg_564">
           <g id="svg_565">
            <g id="svg_566">
             <g id="svg_567">
              <g id="svg_568">
               <g id="svg_569">
                <g id="svg_570">
                 <g id="svg_571">
                  <g id="svg_572">
                   <g id="svg_573">
                    <g id="svg_574">
                     <path d="m398.55802,432.96269c0.049,0.226 1.127,0.147 2.264,0.692c1.152,0.512 1.791,1.384 1.995,1.274c0.213,-0.061 -0.231,-1.358 -1.656,-2.008c-1.42,-0.664 -2.694,-0.16 -2.603,0.042z" fill="#263238" id="svg_575"/>
                    </g>
                   </g>
                  </g>
                 </g>
                </g>
               </g>
              </g>
             </g>
            </g>
           </g>
          </g>
         </g>
         <g id="svg_576">
          <g id="svg_577">
           <g id="svg_578">
            <g id="svg_579">
             <g id="svg_580">
              <g id="svg_581">
               <g id="svg_582">
                <g id="svg_583">
                 <g id="svg_584">
                  <g id="svg_585">
                   <g id="svg_586">
                    <g id="svg_587">
                     <path d="m398.58402,439.57269c0.212,-0.047 0.001,-1.233 -1.086,-2.122c-1.082,-0.897 -2.287,-0.876 -2.292,-0.659c-0.036,0.229 0.895,0.54 1.777,1.283c0.9,0.723 1.383,1.577 1.601,1.498z" fill="#263238" id="svg_588"/>
                    </g>
                   </g>
                  </g>
                 </g>
                </g>
               </g>
              </g>
             </g>
            </g>
           </g>
          </g>
         </g>
         <g id="svg_589">
          <g id="svg_590">
           <g id="svg_591">
            <g id="svg_592">
             <g id="svg_593">
              <g id="svg_594">
               <g id="svg_595">
                <g id="svg_596">
                 <g id="svg_597">
                  <g id="svg_598">
                   <g id="svg_599">
                    <g id="svg_600">
                     <path d="m400.11902,423.70669c0.179,0.149 1.002,-0.601 2.224,-1.088c1.213,-0.512 2.325,-0.556 2.348,-0.789c0.049,-0.21 -1.223,-0.554 -2.655,0.041c-1.436,0.583 -2.099,1.721 -1.917,1.836z" fill="#263238" id="svg_601"/>
                    </g>
                   </g>
                  </g>
                 </g>
                </g>
               </g>
              </g>
             </g>
            </g>
           </g>
          </g>
         </g>
        </g>
       </g>
      </g>
      <g id="svg_602">
       <g id="svg_603">
        <g id="svg_604">
         <g id="svg_605">
          <path d="m384.97102,404.91869l-30.39,-82.629c0,0 0.723,-13.734 3.253,-18.071c2.53,-4.337 79.151,-29.637 79.151,-29.637s19.517,-4.699 32.528,0c13.011,4.698 26.232,10.499 24.934,19.621c-0.185,1.297 -0.532,2.677 -1,4.099c-4.341,13.201 -16.746,22.081 -30.636,22.493l-10.126,1.133l-51.65,9.859c-2.308,0.44 -3.728,2.781 -3.053,5.032l16.685,55.587c0.001,0 -18.226,8.893 -29.696,12.513z" fill="#263238" id="svg_606"/>
         </g>
        </g>
       </g>
      </g>
      <g id="svg_607">
       <g id="svg_608">
        <g id="svg_609">
         <g id="svg_610">
          <polygon points="358.1370041370392,347.77972412109375 357.41102147102356,376.8957214355469 379.0950119495392,377.42572021484375 382.21900486946106,342.4857177734375 " fill="#FFBE9D" id="svg_611"/>
         </g>
        </g>
       </g>
      </g>
      <g id="svg_612">
       <g id="svg_613">
        <g id="svg_614">
         <g id="svg_615">
          <g id="svg_616">
           <g id="svg_617">
            <g id="svg_618">
             <g id="svg_619">
              <g id="svg_620">
               <g id="svg_621">
                <g id="svg_622">
                 <g id="svg_623">
                  <g id="svg_624">
                   <g id="svg_625">
                    <path d="m357.41102,373.01969l-0.895,16.62c0,0 -24.704,8.875 -25.029,13.416l47.574,0.482l1.463,-29.671l-23.113,-0.847z" fill="#455A64" id="svg_626"/>
                   </g>
                  </g>
                 </g>
                </g>
               </g>
              </g>
             </g>
            </g>
           </g>
          </g>
         </g>
         <g id="svg_627">
          <g id="svg_628">
           <g id="svg_629">
            <g id="svg_630">
             <g id="svg_631">
              <g id="svg_632">
               <path d="m356.29302,380.26769c-0.034,-0.001 -0.067,-0.306 0.028,-0.85c0.099,-0.539 0.346,-1.328 0.958,-2.163c0.157,-0.204 0.314,-0.424 0.571,-0.625c0.244,-0.199 0.666,-0.352 1.073,-0.217c0.202,0.059 0.404,0.224 0.474,0.427c0.076,0.207 0.038,0.41 -0.022,0.577c-0.133,0.342 -0.332,0.586 -0.499,0.868c-0.372,0.562 -0.679,1.121 -1.154,1.753c-0.241,0.323 -0.78,0.59 -1.273,0.514c-0.485,-0.055 -0.877,-0.266 -1.23,-0.489c-0.685,-0.446 -1.288,-0.953 -1.807,-1.494c-0.259,-0.27 -0.496,-0.549 -0.712,-0.832c-0.204,-0.28 -0.445,-0.565 -0.535,-0.955c-0.092,-0.376 0.067,-0.87 0.543,-1.041c0.483,-0.156 0.876,0.061 1.145,0.232c0.546,0.406 0.874,0.823 1.207,1.227c0.635,0.806 0.985,1.544 1.183,2.059c0.194,0.519 0.24,0.819 0.206,0.828c-0.098,0.037 -0.423,-1.161 -1.711,-2.674c-0.32,-0.359 -0.716,-0.795 -1.16,-1.099c-0.226,-0.145 -0.509,-0.238 -0.68,-0.161c-0.181,0.058 -0.281,0.301 -0.222,0.535c0.056,0.242 0.259,0.502 0.468,0.771c0.209,0.266 0.438,0.528 0.686,0.782c0.497,0.508 1.074,0.988 1.719,1.408c0.31,0.2 0.648,0.365 0.963,0.399c0.316,0.035 0.564,-0.077 0.772,-0.319c0.395,-0.515 0.774,-1.152 1.139,-1.681c0.175,-0.276 0.386,-0.544 0.478,-0.775c0.096,-0.243 0.043,-0.4 -0.146,-0.468c-0.434,-0.161 -0.856,0.279 -1.149,0.652c-1.218,1.554 -1.202,2.843 -1.313,2.811z" fill="#263238" id="svg_633"/>
              </g>
             </g>
            </g>
           </g>
          </g>
         </g>
         <g id="svg_634">
          <g id="svg_635">
           <g id="svg_636">
            <g id="svg_637">
             <g id="svg_638">
              <g id="svg_639">
               <g id="svg_640">
                <g id="svg_641">
                 <g id="svg_642">
                  <g id="svg_643">
                   <g id="svg_644">
                    <g id="svg_645">
                     <path d="m371.24802,387.72769c0.918,0.261 1.544,1.303 1.321,2.231c-0.223,0.928 -1.277,1.574 -2.2,1.329c-0.922,-0.245 -1.712,-1.472 -1.387,-2.37c0.326,-0.897 1.605,-1.587 2.441,-1.128" fill="#E0E0E0" id="svg_646"/>
                    </g>
                   </g>
                  </g>
                 </g>
                </g>
               </g>
              </g>
             </g>
            </g>
           </g>
          </g>
         </g>
         <g opacity="0.6" id="svg_647">
          <g id="svg_648">
           <g id="svg_649">
            <g id="svg_650">
             <g id="svg_651">
              <g id="svg_652">
               <g id="svg_653">
                <g id="svg_654">
                 <g id="svg_655">
                  <g id="svg_656">
                   <g id="svg_657">
                    <path d="m379.06202,403.53769l-0.092,-3.856l-45.579,0.98c0,0 -2.127,0.9 -1.903,2.394l47.574,0.482z" fill="#FFFFFF" id="svg_658"/>
                   </g>
                  </g>
                 </g>
                </g>
               </g>
              </g>
             </g>
            </g>
           </g>
          </g>
         </g>
         <g id="svg_659">
          <g id="svg_660">
           <g id="svg_661">
            <g id="svg_662">
             <g id="svg_663">
              <g id="svg_664">
               <g id="svg_665">
                <g id="svg_666">
                 <g id="svg_667">
                  <g id="svg_668">
                   <g id="svg_669">
                    <g id="svg_670">
                     <path d="m355.74802,389.38969c0.005,0.233 1.166,0.349 2.301,1.108c1.155,0.729 1.735,1.741 1.949,1.651c0.215,-0.043 -0.118,-1.435 -1.509,-2.329c-1.382,-0.906 -2.789,-0.644 -2.741,-0.43z" fill="#263238" id="svg_671"/>
                    </g>
                   </g>
                  </g>
                 </g>
                </g>
               </g>
              </g>
             </g>
            </g>
           </g>
          </g>
         </g>
         <g id="svg_672">
          <g id="svg_673">
           <g id="svg_674">
            <g id="svg_675">
             <g id="svg_676">
              <g id="svg_677">
               <g id="svg_678">
                <g id="svg_679">
                 <g id="svg_680">
                  <g id="svg_681">
                   <g id="svg_682">
                    <g id="svg_683">
                     <path d="m350.73702,391.40269c-0.055,0.224 0.947,0.63 1.726,1.62c0.808,0.968 0.996,2.032 1.228,2.024c0.218,0.039 0.393,-1.32 -0.6,-2.533c-0.981,-1.221 -2.346,-1.332 -2.354,-1.111z" fill="#263238" id="svg_684"/>
                    </g>
                   </g>
                  </g>
                 </g>
                </g>
               </g>
              </g>
             </g>
            </g>
           </g>
          </g>
         </g>
         <g id="svg_685">
          <g id="svg_686">
           <g id="svg_687">
            <g id="svg_688">
             <g id="svg_689">
              <g id="svg_690">
               <g id="svg_691">
                <g id="svg_692">
                 <g id="svg_693">
                  <g id="svg_694">
                   <g id="svg_695">
                    <g id="svg_696">
                     <path d="m347.84302,397.34669c0.21,0.052 0.546,-1.106 -0.038,-2.384c-0.575,-1.283 -1.665,-1.796 -1.765,-1.603c-0.133,0.19 0.565,0.879 1.028,1.936c0.488,1.045 0.544,2.025 0.775,2.051z" fill="#263238" id="svg_697"/>
                    </g>
                   </g>
                  </g>
                 </g>
                </g>
               </g>
              </g>
             </g>
            </g>
           </g>
          </g>
         </g>
         <g id="svg_698">
          <g id="svg_699">
           <g id="svg_700">
            <g id="svg_701">
             <g id="svg_702">
              <g id="svg_703">
               <g id="svg_704">
                <g id="svg_705">
                 <g id="svg_706">
                  <g id="svg_707">
                   <g id="svg_708">
                    <g id="svg_709">
                     <path d="m356.22402,383.78769c0.095,0.213 1.164,-0.097 2.476,0.006c1.314,0.076 2.332,0.527 2.455,0.329c0.136,-0.167 -0.852,-1.036 -2.4,-1.135c-1.546,-0.112 -2.643,0.616 -2.531,0.8z" fill="#263238" id="svg_710"/>
                    </g>
                   </g>
                  </g>
                 </g>
                </g>
               </g>
              </g>
             </g>
            </g>
           </g>
          </g>
         </g>
        </g>
       </g>
      </g>
      <g id="svg_711">
       <g id="svg_712">
        <g id="svg_713">
         <g id="svg_714">
          <path d="m370.79902,266.94469c0,0 -12.991,-1.039 -14.437,13.057c-1.446,14.096 -8.23,79.429 -8.23,79.429l35.725,2.977l4.698,-67.224l48.431,-20.601c-0.001,-0.001 -57.513,-9.445 -66.187,-7.638z" fill="#263238" id="svg_715"/>
         </g>
        </g>
       </g>
      </g>
      <g id="svg_716">
       <g id="svg_717">
        <g id="svg_718">
         <g id="svg_719">
          <path d="m424.34702,247.92369c0,0 -7.885,22.106 -6.383,24.57c1.502,2.464 21.777,12.601 21.777,12.601l50.734,19.485c0,0 5.211,-8.289 5.211,-21.021s-17.647,-35.635 -17.647,-35.635l-53.692,0z" fill="#263238" id="svg_720"/>
         </g>
        </g>
       </g>
      </g>
      <g id="svg_721">
       <g id="svg_722">
        <g id="svg_723">
         <g id="svg_724">
          <g id="svg_725">
           <path d="m439.38502,273.45369c0.003,0.008 -0.077,0.051 -0.238,0.128c-0.185,0.086 -0.423,0.196 -0.72,0.333c-0.669,0.298 -1.608,0.715 -2.81,1.25c-2.491,1.085 -6.068,2.643 -10.546,4.594c-9.049,3.895 -21.733,9.355 -36.41,15.673l0.164,-0.231c-0.461,6.64 -0.958,13.812 -1.473,21.232c-1.234,17.345 -2.372,33.337 -3.272,45.989l-0.016,0.229l-0.228,-0.02c-9.234,-0.81 -16.811,-1.475 -22.117,-1.941c-2.609,-0.244 -4.658,-0.435 -6.09,-0.569c-0.674,-0.07 -1.202,-0.125 -1.592,-0.165c-0.359,-0.041 -0.543,-0.068 -0.542,-0.079c0.001,-0.012 0.187,-0.007 0.548,0.011c0.391,0.025 0.921,0.058 1.597,0.1c1.435,0.105 3.487,0.256 6.1,0.447c5.31,0.419 12.893,1.017 22.134,1.747l-0.244,0.209c0.869,-12.655 1.966,-28.65 3.157,-45.997c0.522,-7.419 1.027,-14.591 1.495,-21.23l0.012,-0.166l0.153,-0.065c14.709,-6.243 27.42,-11.639 36.488,-15.488c4.505,-1.889 8.103,-3.398 10.608,-4.448c1.217,-0.499 2.168,-0.889 2.845,-1.167c0.305,-0.12 0.549,-0.216 0.739,-0.29c0.168,-0.064 0.255,-0.093 0.258,-0.086z" fill="#455A64" id="svg_726"/>
          </g>
         </g>
        </g>
       </g>
      </g>
      <g id="svg_727">
       <g id="svg_728">
        <g id="svg_729">
         <g id="svg_730">
          <g id="svg_731">
           <path d="m479.73402,275.66569c-0.013,0.037 -0.52,-0.104 -1.424,-0.389c-1.008,-0.325 -2.289,-0.738 -3.82,-1.232c-3.223,-1.023 -7.695,-2.448 -12.784,-3.23c-5.089,-0.785 -9.798,-0.543 -13.087,0.168c-3.304,0.683 -5.203,1.626 -5.245,1.519c-0.014,-0.03 0.445,-0.289 1.32,-0.668c0.873,-0.382 2.178,-0.845 3.839,-1.243c3.313,-0.823 8.106,-1.133 13.258,-0.337c5.15,0.793 9.631,2.29 12.828,3.411c1.6,0.568 2.883,1.055 3.766,1.403c0.881,0.35 1.362,0.561 1.349,0.598z" fill="#455A64" id="svg_732"/>
          </g>
         </g>
        </g>
       </g>
      </g>
      <g id="svg_733">
       <g id="svg_734">
        <g id="svg_735">
         <g id="svg_736">
          <g id="svg_737">
           <path d="m472.56202,264.01269c-0.014,0.09 -1.699,-0.239 -4.435,-0.025c-1.366,0.095 -2.992,0.305 -4.802,0.514c-1.807,0.215 -3.792,0.458 -5.845,0.847c-4.122,0.734 -7.669,2.171 -9.941,3.688c-2.294,1.493 -3.369,2.854 -3.447,2.777c-0.022,-0.018 0.21,-0.383 0.737,-0.954c0.526,-0.569 1.341,-1.359 2.486,-2.155c2.26,-1.637 5.886,-3.171 10.059,-3.912c2.08,-0.394 4.079,-0.623 5.894,-0.81c1.813,-0.181 3.45,-0.35 4.839,-0.396c1.387,-0.05 2.515,0.03 3.283,0.146c0.768,0.118 1.179,0.247 1.172,0.28z" fill="#455A64" id="svg_738"/>
          </g>
         </g>
        </g>
       </g>
      </g>
      <g id="svg_739">
       <g id="svg_740">
        <g id="svg_741">
         <g id="svg_742">
          <g id="svg_743">
           <g id="svg_744">
            <path d="m398.85902,420.98969c-0.031,0.013 -0.211,-0.277 -0.393,-0.863c-0.176,-0.583 -0.342,-1.481 -0.205,-2.586c0.04,-0.273 0.072,-0.563 0.205,-0.877c0.121,-0.307 0.425,-0.646 0.856,-0.69c0.21,-0.03 0.472,0.046 0.636,0.218c0.17,0.173 0.236,0.394 0.264,0.587c0.049,0.401 -0.009,0.733 -0.021,1.089c-0.057,0.726 -0.058,1.421 -0.173,2.263c-0.057,0.43 -0.409,0.935 -0.889,1.076c-0.463,0.159 -0.918,0.121 -1.344,0.054c-0.834,-0.144 -1.625,-0.385 -2.356,-0.696c-0.365,-0.156 -0.715,-0.331 -1.048,-0.518c-0.321,-0.19 -0.677,-0.369 -0.951,-0.719c-0.268,-0.336 -0.368,-0.9 -0.025,-1.281c0.356,-0.37 0.816,-0.326 1.142,-0.273c0.69,0.165 1.189,0.438 1.686,0.694c0.966,0.526 1.644,1.11 2.075,1.538c0.429,0.433 0.619,0.714 0.593,0.737c-0.07,0.08 -0.951,-0.974 -2.852,-1.919c-0.463,-0.217 -1.034,-0.478 -1.581,-0.587c-0.275,-0.045 -0.574,-0.014 -0.689,0.139c-0.133,0.138 -0.104,0.425 0.065,0.633c0.169,0.218 0.48,0.387 0.8,0.565c0.319,0.173 0.653,0.335 1.001,0.48c0.696,0.289 1.45,0.514 2.235,0.649c0.377,0.063 0.762,0.079 1.061,-0.026c0.301,-0.104 0.468,-0.326 0.536,-0.66c0.101,-0.69 0.128,-1.494 0.195,-2.185c0.021,-0.354 0.079,-0.715 0.047,-0.986c-0.033,-0.285 -0.158,-0.419 -0.361,-0.404c-0.468,0.031 -0.63,0.657 -0.71,1.159c-0.332,2.089 0.316,3.371 0.201,3.389z" fill="#263238" id="svg_745"/>
           </g>
          </g>
         </g>
        </g>
       </g>
      </g>
     </g>
     <g id="svg_746">
      <g id="svg_747">
       <g id="svg_748">
        <g id="svg_749">
         <g id="svg_750">
          <path d="m423.09402,160.82769c0,0 -5.235,1.669 -8.426,7.323c-3.163,5.603 -2.319,8.37 -1.491,11.68c0.827,3.31 2.285,9.882 2.367,9.459c0.081,-0.424 7.55,-28.462 7.55,-28.462z" fill="#FFBE9D" id="svg_751"/>
         </g>
        </g>
       </g>
       <path d="m476.57502,170.82069c0,0 -4.138,-9.993 -4.971,-10.92l-15.283,-3.861l-9.552,4.677c-2.767,1.355 -5.847,2.061 -8.915,1.771c-3.424,-0.324 -6.423,-1.702 -7.932,-4.225l0,0l-5.97,1.613c0,0 -9.481,28.617 -9.285,36.538c0.196,7.921 3.483,30.415 3.107,34.851c-0.376,4.436 1.167,16.66 6.573,16.66s53.692,0 53.692,0s12.126,-3.353 12.652,-10.64c0.527,-7.288 -14.116,-66.464 -14.116,-66.464z" fill="#00ffff" id="svg_752"/>
       <g id="svg_753">
        <g id="svg_754">
         <g id="svg_755">
          <g id="svg_756">
           <g id="svg_757">
            <path d="m459.46102,214.23569c0.021,0.028 -0.289,0.311 -0.9,0.761c-0.612,0.448 -1.543,1.042 -2.779,1.619c-1.232,0.58 -2.79,1.104 -4.583,1.375c-1.79,0.252 -3.82,0.238 -5.859,-0.253c-4.12,-0.957 -7.219,-3.386 -9.115,-5.288c-0.958,-0.965 -1.643,-1.827 -2.095,-2.434c-0.44,-0.617 -0.659,-0.974 -0.629,-0.996c0.081,-0.064 1.055,1.304 3.003,3.141c1.937,1.801 4.992,4.104 8.965,5.025c3.967,0.96 7.73,0.112 10.151,-0.936c2.461,-1.046 3.778,-2.108 3.841,-2.014z" fill="#263238" id="svg_758"/>
           </g>
          </g>
         </g>
        </g>
       </g>
       <g opacity="0.3" id="svg_759">
        <g id="svg_760">
         <g id="svg_761">
          <g id="svg_762">
           <g id="svg_763">
            <path d="m434.39802,210.25669c0.408,4.053 2.347,7.991 5.516,10.551c3.169,2.56 7.573,3.624 11.49,2.504c3.917,-1.12 7.169,-4.509 7.847,-8.526c-2.761,1.258 -5.567,2.529 -8.568,2.983c-6.396,0.968 -13.226,-2.257 -16.544,-7.809c0.146,0.154 0.292,0.308 0.437,0.462" id="svg_764"/>
           </g>
          </g>
         </g>
        </g>
       </g>
       <g opacity="0.3" id="svg_765">
        <path d="m479.58502,218.96369c-5.673,-11.003 -11.67,-22.396 -21.591,-29.8l0,0c2.198,7.529 4.168,14.593 6.603,22.048c0.689,2.111 1.772,4.563 3.965,4.913c0.807,0.129 1.643,-0.069 2.444,0.091c1.372,0.274 2.321,1.506 3.059,2.695c0.738,1.189 1.473,2.496 2.73,3.11c1.258,0.614 3.176,0.027 3.293,-1.367c0.051,-0.594 -0.23,-1.16 -0.503,-1.69z" id="svg_766"/>
       </g>
       <g id="svg_767">
        <path d="m495.68602,197.99669l-27.057,12.685c0,0 -11.976,-23.995 -12.924,-27.33c-0.948,-3.335 -2.979,-9.021 0.072,-15.977s11.139,-9.134 16.244,-7.342c11.929,4.187 23.665,37.964 23.665,37.964z" fill="#00ffff" id="svg_768"/>
       </g>
       <g id="svg_769">
        <path d="m417.24302,197.91169c-1.263,0 -15.769,7.588 -15.769,7.588l-9.646,-27.824c12.468,-6.76 26.321,-16.3 33.539,-18.239l-6.272,21.767l-1.852,16.708z" fill="#00ffff" id="svg_770"/>
       </g>
       <g id="svg_771">
        <g id="svg_772">
         <g id="svg_773">
          <g id="svg_774">
           <g id="svg_775">
            <path d="m485.34902,176.19069" fill="#FFBE9D" id="svg_776"/>
           </g>
           <g id="svg_777">
            <path d="m471.28302,208.95969c5.124,8.419 8.699,13.262 8.699,13.262l-45.952,27.986l5.355,12.438l55.857,-22.99c3.78,-1.556 6.732,-4.759 7.671,-8.738c0.404,-1.715 0.476,-3.621 -0.129,-5.586l-9.503,-26.227l-21.998,9.855z" fill="#FFBE9D" id="svg_778"/>
           </g>
          </g>
         </g>
        </g>
       </g>
       <g id="svg_779">
        <g id="svg_780">
         <g id="svg_781">
          <g id="svg_782">
           <g id="svg_783">
            <g id="svg_784">
             <path d="m491.16002,226.49769c-0.108,0.143 -2.279,-1.682 -5.5,-2.857c-3.209,-1.211 -6.044,-1.244 -6.033,-1.423c-0.027,-0.134 2.904,-0.36 6.23,0.891c3.336,1.222 5.411,3.306 5.303,3.389z" fill="#EB996E" id="svg_785"/>
            </g>
           </g>
          </g>
         </g>
        </g>
       </g>
       <g id="svg_786">
        <g id="svg_787">
         <path d="m418.90902,173.16469c-0.04,-0.015 -0.313,0.441 -0.775,1.285c-0.435,0.851 -0.989,2.113 -1.494,3.71c-1.061,3.188 -1.884,7.712 -2.272,12.728c-0.351,5.021 -0.219,9.582 0.154,12.863c0.172,1.641 0.403,2.963 0.596,3.87c0.209,0.906 0.344,1.403 0.388,1.396c0.043,-0.006 -0.01,-0.514 -0.142,-1.425c-0.117,-0.912 -0.279,-2.232 -0.392,-3.869c-0.258,-3.271 -0.317,-7.809 0.032,-12.804c0.387,-4.99 1.133,-9.489 2.073,-12.671c0.446,-1.595 0.928,-2.861 1.289,-3.727c0.387,-0.856 0.583,-1.341 0.543,-1.356z" fill="#263238" id="svg_788"/>
        </g>
       </g>
       <g id="svg_789">
        <g id="svg_790">
         <g id="svg_791">
          <g id="svg_792">
           <g id="svg_793">
            <path d="m398.37802,258.72969l11.461,-5.483l22.367,-1.774l1.824,-1.266l5.355,12.438c0,0 -5.863,2.803 -8.934,3.053l-18.805,-0.57l-9.832,1.033l-3.436,-7.431z" fill="#FFBE9D" id="svg_794"/>
           </g>
          </g>
         </g>
        </g>
       </g>
       <g id="svg_795">
        <g id="svg_796">
         <path d="m495.68602,197.99669c-0.008,-0.016 -0.192,0.049 -0.537,0.189c-0.396,0.168 -0.891,0.378 -1.498,0.636c-1.357,0.603 -3.209,1.424 -5.468,2.427c-4.656,2.123 -10.975,5.004 -17.958,8.187c-0.75,0.346 -1.493,0.688 -2.19,1.01l0.342,0.122c-3.122,-6.435 -5.859,-12.192 -7.796,-16.347c-0.936,-2.033 -1.7,-3.693 -2.262,-4.914c-0.246,-0.536 -0.447,-0.976 -0.61,-1.33c-0.143,-0.302 -0.226,-0.457 -0.242,-0.451c-0.016,0.006 0.036,0.174 0.15,0.489c0.116,0.314 0.285,0.778 0.524,1.368c0.473,1.183 1.193,2.885 2.118,4.984c1.855,4.198 4.537,9.984 7.651,16.428l0.111,0.229l0.231,-0.107c0.698,-0.321 1.441,-0.663 2.191,-1.008c6.958,-3.237 13.255,-6.167 17.894,-8.325c2.23,-1.065 4.059,-1.938 5.399,-2.578c0.59,-0.294 1.072,-0.533 1.457,-0.725c0.331,-0.17 0.501,-0.268 0.493,-0.284z" fill="#263238" id="svg_797"/>
        </g>
       </g>
      </g>
      <g id="svg_798">
       <path d="m470.78902,160.03269c0.003,0.096 -1.268,0.061 -3.226,0.531c-1.944,0.455 -4.585,1.541 -6.845,3.608c-2.259,2.069 -3.574,4.605 -4.199,6.501c-0.641,1.909 -0.718,3.178 -0.814,3.166c-0.032,-0.002 -0.045,-0.32 0.003,-0.891c0.046,-0.571 0.177,-1.395 0.46,-2.385c0.548,-1.969 1.855,-4.628 4.199,-6.775c2.345,-2.145 5.108,-3.211 7.118,-3.584c1.011,-0.194 1.844,-0.252 2.417,-0.247c0.572,0.003 0.887,0.044 0.887,0.076z" fill="#263238" id="svg_799"/>
      </g>
      <g id="svg_800">
       <path d="m486.34402,177.45969c0.034,0.01 -0.094,0.434 -0.359,1.198c-0.215,0.784 -0.756,1.83 -1.541,3.053c-0.23,0.286 -0.468,0.583 -0.715,0.891c-0.125,0.155 -0.253,0.313 -0.383,0.474c-0.144,0.148 -0.306,0.283 -0.463,0.428c-0.32,0.288 -0.649,0.585 -0.987,0.89c-0.37,0.265 -0.765,0.52 -1.163,0.791c-1.627,1.021 -3.586,1.868 -5.707,2.456c-4.245,1.184 -8.172,1.747 -10.898,2.595c-2.745,0.787 -4.265,1.724 -4.319,1.629c-0.018,-0.031 0.357,-0.265 1.059,-0.666c0.344,-0.218 0.796,-0.414 1.326,-0.633c0.269,-0.114 0.552,-0.233 0.847,-0.357c0.312,-0.104 0.637,-0.212 0.976,-0.324c2.733,-0.948 6.674,-1.575 10.861,-2.744c2.095,-0.58 4.005,-1.395 5.598,-2.363c0.389,-0.255 0.769,-0.505 1.14,-0.748c0.332,-0.288 0.656,-0.568 0.97,-0.841c0.155,-0.137 0.316,-0.264 0.459,-0.404c0.129,-0.152 0.256,-0.302 0.38,-0.449c0.248,-0.291 0.488,-0.572 0.72,-0.843c0.798,-1.161 1.381,-2.16 1.65,-2.912c0.32,-0.729 0.515,-1.132 0.549,-1.121z" fill="#FFFFFF" id="svg_801"/>
      </g>
      <g id="svg_802">
       <path d="m482.77902,171.08669c0.001,0.053 -0.438,-0.018 -1.126,0.267c-0.691,0.275 -1.54,0.979 -2.246,2.128c-0.368,0.564 -0.727,1.22 -1.207,1.887c-0.489,0.659 -1.095,1.303 -1.82,1.873c-1.447,1.152 -3.321,1.983 -5.325,2.586c-2.01,0.612 -3.97,0.961 -5.709,1.392c-1.745,0.417 -3.281,0.91 -4.509,1.464c-2.475,1.111 -3.581,2.459 -3.651,2.376c-0.013,-0.012 0.048,-0.099 0.178,-0.254c0.128,-0.158 0.326,-0.381 0.612,-0.639c0.562,-0.524 1.464,-1.206 2.703,-1.816c1.238,-0.611 2.795,-1.15 4.55,-1.597c1.753,-0.461 3.702,-0.824 5.675,-1.425c1.97,-0.593 3.785,-1.386 5.182,-2.466c0.7,-0.535 1.287,-1.136 1.768,-1.753c0.473,-0.624 0.852,-1.27 1.248,-1.834c0.764,-1.156 1.725,-1.886 2.481,-2.112c0.375,-0.123 0.685,-0.145 0.889,-0.135c0.205,0.009 0.309,0.044 0.307,0.058z" fill="#FFFFFF" id="svg_803"/>
      </g>
      <g id="svg_804">
       <path d="m460.96502,195.13569c0.007,0.017 -0.14,0.099 -0.426,0.24c-0.344,0.161 -0.761,0.357 -1.264,0.592c-1.104,0.5 -2.71,1.208 -4.734,1.992c-2.026,0.771 -4.472,1.646 -7.289,2.258c-2.807,0.616 -6.013,0.975 -9.336,0.55c-3.339,-0.399 -6.306,-1.614 -8.99,-2.57c-2.68,-0.994 -5.139,-1.741 -7.273,-2.009c-2.129,-0.287 -3.882,-0.145 -5.053,0.111c-1.175,0.251 -1.792,0.524 -1.811,0.477c-0.007,-0.016 0.142,-0.093 0.435,-0.224c0.293,-0.13 0.738,-0.299 1.329,-0.45c1.177,-0.322 2.968,-0.525 5.143,-0.279c2.179,0.225 4.696,0.951 7.39,1.923c2.701,0.936 5.641,2.119 8.893,2.505c3.246,0.416 6.393,0.08 9.17,-0.502c2.787,-0.579 5.228,-1.41 7.261,-2.134c2.031,-0.737 3.656,-1.391 4.783,-1.834c0.518,-0.2 0.947,-0.366 1.301,-0.502c0.303,-0.111 0.464,-0.16 0.471,-0.144z" fill="#FFFFFF" id="svg_805"/>
      </g>
      <g id="svg_806">
       <path d="m416.57002,185.93469c-0.01,-0.015 0.111,-0.108 0.354,-0.273c0.24,-0.166 0.62,-0.384 1.141,-0.586c1.028,-0.434 2.679,-0.733 4.668,-0.476c1.992,0.228 4.271,1.073 6.551,2.363c2.301,1.247 4.682,2.878 7.462,3.938c2.792,1.029 5.662,1.322 8.243,1.239c2.589,-0.073 4.907,-0.449 6.836,-0.82c1.931,-0.375 3.484,-0.741 4.56,-0.986c1.075,-0.245 1.673,-0.37 1.683,-0.335c0.009,0.034 -0.571,0.225 -1.632,0.531c-1.061,0.305 -2.604,0.727 -4.536,1.15c-1.931,0.42 -4.264,0.839 -6.895,0.939c-2.621,0.11 -5.567,-0.172 -8.441,-1.231c-2.863,-1.094 -5.247,-2.751 -7.512,-4.006c-2.246,-1.3 -4.434,-2.147 -6.368,-2.417c-1.926,-0.295 -3.526,-0.063 -4.548,0.301c-1.033,0.354 -1.537,0.716 -1.566,0.669z" fill="#FFFFFF" id="svg_807"/>
      </g>
      <g id="svg_808">
       <path d="m411.42102,200.18269c-0.004,0.017 -0.11,0.005 -0.309,-0.035c-0.203,-0.03 -0.489,-0.12 -0.853,-0.257c-0.721,-0.281 -1.708,-0.895 -2.626,-1.948c-0.918,-1.05 -1.739,-2.532 -2.241,-4.302c-0.503,-1.776 -0.641,-3.791 -0.72,-5.873c-0.077,-2.083 -0.127,-4.064 -0.462,-5.812c-0.333,-1.747 -0.925,-3.26 -1.634,-4.397c-1.43,-2.325 -3.183,-2.9 -3.101,-2.994c0.007,-0.016 0.109,0.014 0.298,0.089c0.194,0.066 0.46,0.203 0.796,0.399c0.664,0.397 1.54,1.148 2.317,2.306c0.777,1.156 1.426,2.708 1.795,4.503c0.371,1.801 0.434,3.807 0.511,5.885c0.078,2.074 0.203,4.052 0.662,5.766c0.459,1.712 1.215,3.156 2.06,4.192c0.846,1.039 1.754,1.672 2.428,2c0.676,0.334 1.093,0.426 1.079,0.478z" fill="#FFFFFF" id="svg_809"/>
      </g>
      <g id="svg_810">
       <path d="m414.16302,193.07669c-0.07,0.025 -0.592,-1.23 -1.442,-3.254c-0.913,-2.151 -2.07,-4.879 -3.35,-7.896c-1.336,-3.072 -2.576,-5.838 -3.529,-7.813c-0.94,-1.981 -1.612,-3.157 -1.547,-3.199c0.03,-0.019 0.233,0.255 0.573,0.771c0.332,0.52 0.783,1.29 1.302,2.262c1.042,1.942 2.339,4.693 3.678,7.772c1.33,3.081 2.454,5.904 3.215,7.968c0.381,1.032 0.673,1.873 0.861,2.459c0.187,0.587 0.273,0.917 0.239,0.93z" fill="#FFFFFF" id="svg_811"/>
      </g>
     </g>
     <g id="svg_812">
      <g id="svg_813">
       <g id="svg_814">
        <path d="m333.90202,214.58169l64.478,0.524c2.092,0 4.09,1.005 4.404,3.073l7.047,46.995l33.212,0c1.069,0 1.936,0.867 1.936,1.936c0,1.069 -0.867,1.936 -1.936,1.936l-32.631,0l-6.194,0l-67.249,0l-7.249,-49.599c-0.388,-2.56 1.593,-4.865 4.182,-4.865z" fill="#E0E0E0" id="svg_815"/>
       </g>
       <g id="svg_816">
        <g id="svg_817">
         <path d="m333.90202,214.58169c0,0 -0.351,-0.045 -1.016,0.095c-0.645,0.15 -1.662,0.549 -2.463,1.633c-0.399,0.531 -0.703,1.24 -0.797,2.058c-0.105,0.83 0.133,1.706 0.237,2.652c0.27,1.899 0.581,4.087 0.93,6.545c1.419,9.853 3.464,24.052 5.979,41.509l0.025,0.17l0.172,0c27.448,0.016 63.519,0.038 102.908,0.061c0.925,0 1.848,0 2.77,0c0.427,0.018 1.022,-0.007 1.465,-0.279c0.458,-0.252 0.814,-0.675 0.992,-1.164c0.386,-0.984 -0.075,-2.189 -1.001,-2.678c-0.442,-0.267 -1.031,-0.29 -1.453,-0.273l-1.364,0c-3.633,0.001 -7.229,0.001 -10.778,0.002c-7.099,0.002 -14.013,0.005 -20.676,0.007l0.248,0.214c-2.536,-16.83 -4.902,-32.53 -7.025,-46.615c-0.073,-0.892 -0.477,-1.857 -1.193,-2.455c-0.7,-0.621 -1.586,-0.951 -2.465,-1.088c-0.897,-0.136 -1.75,-0.063 -2.6,-0.092c-0.851,-0.006 -1.695,-0.012 -2.532,-0.017c-3.348,-0.022 -6.586,-0.044 -9.707,-0.065c-6.24,-0.04 -12.011,-0.076 -17.252,-0.109c-10.469,-0.054 -18.814,-0.097 -24.56,-0.126c-2.855,-0.005 -5.061,-0.009 -6.57,-0.012c-0.737,0.003 -1.301,0.006 -1.697,0.008c-0.382,0.005 -0.577,0.019 -0.577,0.019s0.194,0.016 0.576,0.027c0.396,0.008 0.959,0.02 1.696,0.035c1.509,0.022 3.715,0.054 6.57,0.095c5.746,0.064 14.091,0.157 24.559,0.273c5.24,0.052 11.011,0.109 17.251,0.171c3.121,0.03 6.359,0.061 9.707,0.092c0.837,0.008 1.681,0.016 2.532,0.024c0.848,0.029 1.721,-0.037 2.536,0.093c0.82,0.129 1.632,0.439 2.249,0.992c0.634,0.552 0.969,1.321 1.049,2.201c2.102,14.088 4.444,29.791 6.956,46.625l0.032,0.214l0.217,0c6.663,0.002 13.577,0.005 20.676,0.007c3.549,0.001 7.145,0.001 10.778,0.002l1.364,0c0.481,-0.013 0.84,0.006 1.201,0.208c0.707,0.374 1.059,1.293 0.764,2.043c-0.136,0.372 -0.407,0.697 -0.757,0.888c-0.363,0.206 -0.725,0.226 -1.211,0.212c-0.921,0 -1.845,0 -2.77,0c-39.389,0.023 -75.46,0.045 -102.908,0.061l0.197,0.17c-2.587,-17.446 -4.692,-31.637 -6.152,-41.484c-0.369,-2.456 -0.697,-4.64 -0.982,-6.537c-0.114,-0.95 -0.358,-1.821 -0.263,-2.612c0.082,-0.792 0.367,-1.483 0.748,-2.005c0.765,-1.067 1.751,-1.477 2.383,-1.644c0.652,-0.156 1.005,-0.126 1.002,-0.151z" fill="#263238" id="svg_818"/>
        </g>
       </g>
      </g>
      <g id="svg_819">
       <circle cx="366.02502" cy="241.21569" r="4.037" fill="#FFFFFF" id="svg_820"/>
      </g>
      <g id="svg_821">
       <g id="svg_822">
        <path d="m407.21802,268.61169c-0.091,0.015 -2.144,-11.952 -4.583,-26.725c-2.441,-14.778 -4.345,-26.767 -4.254,-26.782c0.091,-0.015 2.143,11.949 4.584,26.727c2.44,14.774 4.344,26.765 4.253,26.78z" fill="#263238" id="svg_823"/>
       </g>
      </g>
     </g>
    </g>
   </g>
  </g>
  <g id="Floor">
   <g id="svg_824">
    <path d="m33.957,477.961c0,-0.144 96.733,-0.26 216.033,-0.26c119.341,0 216.053,0.117 216.053,0.26c0,0.144 -96.713,0.26 -216.053,0.26c-119.299,0 -216.033,-0.117 -216.033,-0.26z" fill="#263238" id="svg_825"/>
   </g>
  </g>
 </g>

</svg>